<svg width="75" height="75" viewBox="0 0 75 75" fill="none" xmlns="http://www.w3.org/2000/svg">
<path d="M51.7096 37.5L73.0347 16.1749C75.6551 13.5545 75.6551 9.31508 73.0347 6.69472L68.3053 1.96527C65.6849 -0.655091 61.4455 -0.655091 58.8251 1.96527L37.5 23.2904L16.1749 1.96527C13.5545 -0.655091 9.31508 -0.655091 6.69472 1.96527L1.96527 6.69472C-0.655092 9.31508 -0.655092 13.5545 1.96527 16.1749L23.2904 37.5L1.96527 58.8251C-0.655092 61.4455 -0.655092 65.6849 1.96527 68.3053L6.69472 73.0347C9.31508 75.6551 13.5545 75.6551 16.1749 73.0347L37.5 51.7096L58.8251 73.0347C61.4455 75.6551 65.6849 75.6551 68.3053 73.0347L73.0347 68.3053C75.6551 65.6849 75.6551 61.4455 73.0347 58.8251L51.7096 37.5Z" fill="#5A7E8A"/>
</svg>
