<svg width="16" height="16" viewBox="0 0 16 16" fill="none" xmlns="http://www.w3.org/2000/svg">
<path d="M7.5015 3.63965C5.3622 3.63965 3.63965 5.3622 3.63965 7.5015C3.63965 9.6408 5.3622 11.3634 7.5015 11.3634C9.61302 11.3634 11.3634 9.6408 11.3634 7.5015C11.3634 5.3622 9.6408 3.63965 7.5015 3.63965ZM7.5015 9.72415C6.27905 9.72415 5.27885 8.72396 5.27885 7.5015C5.27885 6.27905 6.27905 5.27885 7.5015 5.27885C8.72396 5.27885 9.72415 6.27905 9.72415 7.5015C9.72415 8.72396 8.72396 9.72415 7.5015 9.72415Z" fill="white"/>
<path d="M12.3913 3.52817C12.3913 4.02827 11.9746 4.44502 11.4745 4.44502C10.9744 4.44502 10.5576 4.02827 10.5576 3.52817C10.5576 3.02808 10.9744 2.61133 11.4745 2.61133C11.9746 2.61133 12.3913 3.02808 12.3913 3.52817Z" fill="white"/>
<path d="M11.2244 0H3.77851C1.69477 0 0 1.69477 0 3.77851V11.2244C0 13.3081 1.69477 15.0029 3.77851 15.0029H11.2244C13.3081 15.0029 15.0029 13.3081 15.0029 11.2244V3.77851C15.0029 1.69477 13.3081 0 11.2244 0ZM13.3637 11.2244C13.3637 12.3913 12.4191 13.3637 11.2244 13.3637H3.77851C2.61161 13.3637 1.6392 12.4191 1.6392 11.2244V3.77851C1.6392 2.61161 2.58383 1.6392 3.77851 1.6392H11.2244C12.3913 1.6392 13.3637 2.61161 13.3637 3.77851V11.2244Z" fill="white"/>
</svg>
