<svg width="20" height="20" viewBox="0 0 20 20" fill="none" xmlns="http://www.w3.org/2000/svg">
<circle cx="10" cy="10" r="10" fill="#34D588"/>
<path fill-rule="evenodd" clip-rule="evenodd" d="M15.6303 5.12906C15.4594 4.95698 15.1812 4.95698 15.0114 5.12906L8.48917 11.621C8.31825 11.7942 8.03942 11.7942 7.86967 11.621L5.01192 8.71073C4.92733 8.6244 4.8165 8.58181 4.70508 8.58123C4.5925 8.58065 4.47817 8.62323 4.39242 8.71073L3.1295 9.8459C3.0455 9.93223 3 10.0401 3 10.1527C3 10.2659 3.0455 10.3843 3.13008 10.4701L6.01175 13.4941C6.18208 13.6667 6.4615 13.9467 6.63125 14.1182L7.87025 15.3671C8.04058 15.5381 8.31883 15.5381 8.48975 15.3671L16.8699 7.00215C17.0408 6.83065 17.0408 6.5489 16.8699 6.3774L15.6303 5.12906Z" fill="white"/>
</svg>
