<svg width="100" height="100" viewBox="0 0 100 100" fill="none" xmlns="http://www.w3.org/2000/svg">
<path d="M81.0795 21.3012L34.0571 68.3237C30.9888 71.3919 30.9888 76.3666 34.0571 79.4348C37.1253 82.5031 42.1 82.5031 45.1682 79.4348L92.1907 32.4123C95.259 29.3441 95.259 24.3695 92.1907 21.3012C89.1224 18.2329 84.1478 18.2329 81.0795 21.3012Z" fill="#4F6F7A"/>
<path d="M8.30119 53.8059L33.9324 79.4371C37.0007 82.5054 41.9753 82.5054 45.0436 79.4371C48.1118 76.3689 48.1118 71.3942 45.0436 68.326L19.4123 42.6947C16.3441 39.6265 11.3695 39.6265 8.30119 42.6947C5.23293 45.763 5.23293 50.7376 8.30119 53.8059Z" fill="#4F6F7A"/>
</svg>
