<svg xmlns="http://www.w3.org/2000/svg" viewBox="0 0 23.47 23.47"><defs><style>.cls-1{fill:#312c30;}</style></defs><title>tw-round-icon</title><g id="Layer_2" data-name="Layer 2"><g id="Layer_1-2" data-name="Layer 1"><path class="cls-1" d="M11.74,23.47A11.74,11.74,0,1,1,23.47,11.74,11.75,11.75,0,0,1,11.74,23.47M11.74,2a9.76,9.76,0,1,0,9.75,9.76A9.77,9.77,0,0,0,11.74,2"/><path class="cls-1" d="M18.62,7.69a5.45,5.45,0,0,1-1.38.39c.22,0,.55-.44.68-.6a2.46,2.46,0,0,0,.46-.84s0,0,0-.07a.06.06,0,0,0-.07,0,7,7,0,0,1-1.65.62.09.09,0,0,1-.11,0A1.85,1.85,0,0,0,16.41,7a2.73,2.73,0,0,0-.8-.49,2.8,2.8,0,0,0-1.22-.2,2.88,2.88,0,0,0-1.15.33,3.15,3.15,0,0,0-.94.76,2.8,2.8,0,0,0-.55,1.12,2.93,2.93,0,0,0,0,1.18c0,.06,0,.07-.06.06A8.73,8.73,0,0,1,6,6.92c-.07-.07-.1-.07-.16,0a2.87,2.87,0,0,0,.49,3.38,3.44,3.44,0,0,0,.35.3,2.87,2.87,0,0,1-1.09-.3c-.07,0-.1,0-.11.06s0,.2,0,.32A2.89,2.89,0,0,0,7.3,13a1.58,1.58,0,0,0,.37.11,3.1,3.1,0,0,1-1.07,0c-.08,0-.11,0-.08.1a3,3,0,0,0,2.24,1.87,2.87,2.87,0,0,1,.31.05h0c-.25.39-1.12.67-1.53.82a5.59,5.59,0,0,1-2.33.29.47.47,0,0,0-.18,0s0,0,0,.09l.49.28a7.2,7.2,0,0,0,1.55.63,8.29,8.29,0,0,0,8-1.88,8.45,8.45,0,0,0,2.23-6.16c0-.09.1-.14.17-.18a5.89,5.89,0,0,0,1.09-1.14.32.32,0,0,0,.06-.22h0s0,0-.05,0"/></g></g></svg>