<svg xmlns="http://www.w3.org/2000/svg" viewBox="0 0 23.46 23.46"><defs><style>.cls-1{fill:#312c30;fill-rule:evenodd;}</style></defs><title>whatsapp-round-icon</title><g id="Layer_2" data-name="Layer 2"><g id="Layer_1-2" data-name="Layer 1"><path class="cls-1" d="M11.73,0A11.73,11.73,0,0,0,1.87,18.08L.09,22A1.05,1.05,0,0,0,.24,23.1a1,1,0,0,0,.78.36,1.17,1.17,0,0,0,.27,0l4.92-1.35A11.73,11.73,0,1,0,11.73,0m0,21.41a9.74,9.74,0,0,1-4.88-1.32A1,1,0,0,0,6.34,20a.84.84,0,0,0-.27,0l-3.21.88L4,18.41a1.05,1.05,0,0,0-.1-1,9.55,9.55,0,0,1-1.83-5.65,9.68,9.68,0,1,1,9.68,9.68"/><path class="cls-1" d="M16.24,13.48a2,2,0,0,0-1.71-.38c-.44.18-.73.88-1,1.23a.43.43,0,0,1-.55.12A7.76,7.76,0,0,1,9.1,11.14a.48.48,0,0,1,.06-.65,2.48,2.48,0,0,0,.7-1.13A2.47,2.47,0,0,0,9.55,8c-.23-.5-.49-1.22-1-1.5a1.35,1.35,0,0,0-1.48.22A3,3,0,0,0,6,9.11a3.14,3.14,0,0,0,.09.75,6.44,6.44,0,0,0,.73,1.68,12,12,0,0,0,.76,1.15,11.77,11.77,0,0,0,3.28,3.05,9.62,9.62,0,0,0,2,1,4.54,4.54,0,0,0,2.38.38,2.86,2.86,0,0,0,2.16-1.61,1.37,1.37,0,0,0,.1-.82c-.12-.57-.88-.9-1.34-1.18"/></g></g></svg>