<svg xmlns="http://www.w3.org/2000/svg" viewBox="0 0 649.27 110.33"><defs><style>.cls-1{fill:#fff;}</style></defs><title>Asset 3</title><g id="Layer_2" data-name="Layer 2"><g id="Layer_1-2" data-name="Layer 1"><path class="cls-1" d="M0,109.13V0H7.13V47.25A42,42,0,0,1,18.94,37.09,29.51,29.51,0,0,1,33.83,33.3a28,28,0,0,1,10.84,2,19.93,19.93,0,0,1,7.76,5.63,24.92,24.92,0,0,1,4.65,8.85,40.16,40.16,0,0,1,1.57,11.7v47.7H51.52V61.42q0-10.5-4.8-16.46T32,39a26,26,0,0,0-13.65,3.79A39.68,39.68,0,0,0,7.13,53.17v56Z"/><path class="cls-1" d="M109.57,33.3A35.9,35.9,0,0,1,123.94,36a29.3,29.3,0,0,1,10.69,7.76,34.42,34.42,0,0,1,6.64,12.11,51.51,51.51,0,0,1,2.29,15.86,51.15,51.15,0,0,1-2.29,15.83,34.45,34.45,0,0,1-6.64,12.07,28.9,28.9,0,0,1-10.69,7.73,36.32,36.32,0,0,1-14.36,2.7,36.32,36.32,0,0,1-14.36-2.7,29.23,29.23,0,0,1-10.73-7.73A34.09,34.09,0,0,1,77.81,87.6a51.1,51.1,0,0,1-2.29-15.83,51.47,51.47,0,0,1,2.29-15.86A34.06,34.06,0,0,1,84.49,43.8,29.64,29.64,0,0,1,95.21,36,35.89,35.89,0,0,1,109.57,33.3Zm0,71.18a27.73,27.73,0,0,0,11.66-2.29,22.08,22.08,0,0,0,8.33-6.56,29,29,0,0,0,5-10.31,51.37,51.37,0,0,0,1.65-13.54,51.49,51.49,0,0,0-1.65-13.5,29.33,29.33,0,0,0-5-10.39,22.28,22.28,0,0,0-8.33-6.64,27.36,27.36,0,0,0-11.66-2.33,27.36,27.36,0,0,0-11.66,2.33,22.26,22.26,0,0,0-8.33,6.64,29.79,29.79,0,0,0-5,10.39,50.39,50.39,0,0,0-1.69,13.5,50.28,50.28,0,0,0,1.69,13.54,29.41,29.41,0,0,0,5,10.31,22.06,22.06,0,0,0,8.33,6.56A27.72,27.72,0,0,0,109.57,104.48Z"/><path class="cls-1" d="M160,109.13v-77h11.33a4.55,4.55,0,0,1,4.73,3.38l1.2,5.7a43.82,43.82,0,0,1,4.24-4.12,27.21,27.21,0,0,1,4.72-3.23,25.57,25.57,0,0,1,5.4-2.14A24,24,0,0,1,198,31q7.27,0,12,3.94a23.72,23.72,0,0,1,7,10.46,23.48,23.48,0,0,1,4.5-6.56,24.62,24.62,0,0,1,5.92-4.46,27.28,27.28,0,0,1,6.86-2.55,33,33,0,0,1,7.31-.82,30.74,30.74,0,0,1,11.33,1.95,21.74,21.74,0,0,1,8.33,5.7,25.13,25.13,0,0,1,5.14,9.15,39.88,39.88,0,0,1,1.76,12.38v49H249.6v-49q0-7.35-3.23-11.06t-9.45-3.71a14.11,14.11,0,0,0-5.29,1,12.6,12.6,0,0,0-4.27,2.81,12.83,12.83,0,0,0-2.89,4.61,17.92,17.92,0,0,0-1.05,6.38v49h-18.6v-49q0-7.72-3.11-11.25t-9.19-3.52a14.83,14.83,0,0,0-7.46,2,25.16,25.16,0,0,0-6.49,5.44v56.33Z"/><path class="cls-1" d="M318.15,31a37.39,37.39,0,0,1,13.39,2.32,29.35,29.35,0,0,1,10.54,6.79A31,31,0,0,1,349,51a41.35,41.35,0,0,1,2.48,14.81,27,27,0,0,1-.19,3.49,5.6,5.6,0,0,1-.67,2.18,2.74,2.74,0,0,1-1.31,1.13,5.61,5.61,0,0,1-2.1.34H299.62q.82,11.85,6.38,17.4t14.7,5.55a25.44,25.44,0,0,0,7.76-1,36.29,36.29,0,0,0,5.7-2.33q2.44-1.27,4.27-2.32A7.17,7.17,0,0,1,342,89.17a4,4,0,0,1,2,.45,4.32,4.32,0,0,1,1.42,1.27l5.4,6.75a30.87,30.87,0,0,1-6.9,6,38.67,38.67,0,0,1-8,3.9,43.72,43.72,0,0,1-8.48,2.06,60.7,60.7,0,0,1-8.36.6,41.11,41.11,0,0,1-14.93-2.66,33.38,33.38,0,0,1-12-7.87,36.93,36.93,0,0,1-8-12.9A49.93,49.93,0,0,1,281.17,69a42.59,42.59,0,0,1,2.55-14.81A35.61,35.61,0,0,1,291,42.11,34.45,34.45,0,0,1,302.66,34,38.3,38.3,0,0,1,318.15,31Zm.38,13.27q-8.1,0-12.68,4.58T300,61.8h34.8a23.1,23.1,0,0,0-1-6.79,15.67,15.67,0,0,0-3-5.59,14.21,14.21,0,0,0-5.1-3.79A17.38,17.38,0,0,0,318.52,44.25Z"/><path class="cls-1" d="M406,1.8a26.4,26.4,0,0,1,9.53,1.73,25.76,25.76,0,0,1,7.84,4.65A22.9,22.9,0,0,1,428.73,15,18.93,18.93,0,0,1,430.87,23q-1.05.22-1.87.45a13.56,13.56,0,0,1-2.7.38,1.7,1.7,0,0,1-1.12-.45,2.48,2.48,0,0,1-.75-1.27,24.76,24.76,0,0,0-1.8-4.5,19.41,19.41,0,0,0-3.45-4.8A18.89,18.89,0,0,0,413.73,9,17.51,17.51,0,0,0,406,7.42a23,23,0,0,0-8.17,1.39,18.38,18.38,0,0,0-6.3,3.9,17.75,17.75,0,0,0-4.09,6A19.23,19.23,0,0,0,386,26.25,23.77,23.77,0,0,0,389.17,38a55.43,55.43,0,0,0,9.75,12.08l33.45,33a54.8,54.8,0,0,0,8-22.58,3.21,3.21,0,0,1,.6-1.54,1.63,1.63,0,0,1,1.35-.56h4.13a48.69,48.69,0,0,1-2.66,14.51,58.43,58.43,0,0,1-7.16,14.29l22.35,21.9h-6.67a6.84,6.84,0,0,1-2.21-.3,6,6,0,0,1-2-1.35L432.67,92.4a59.42,59.42,0,0,1-7.42,7.2,47.38,47.38,0,0,1-8.78,5.66A49.51,49.51,0,0,1,406.38,109a46.09,46.09,0,0,1-11.29,1.35,34.07,34.07,0,0,1-11.1-1.87,30.18,30.18,0,0,1-9.79-5.51,28,28,0,0,1-7-8.92,26.4,26.4,0,0,1-2.66-12,27.68,27.68,0,0,1,1.95-10.31,33.41,33.41,0,0,1,5.32-9,39.57,39.57,0,0,1,8-7.31,45.77,45.77,0,0,1,10-5.25,49.79,49.79,0,0,1-8-11.66,28.1,28.1,0,0,1-2.66-12.11,24.39,24.39,0,0,1,1.91-9.71,22.85,22.85,0,0,1,5.44-7.76,25.48,25.48,0,0,1,8.44-5.18A30.63,30.63,0,0,1,406,1.8Zm-34.2,79.73a21.58,21.58,0,0,0,2.21,10.05,22.47,22.47,0,0,0,5.74,7.16,24.26,24.26,0,0,0,7.84,4.31,27,27,0,0,0,8.51,1.43,39.94,39.94,0,0,0,9.94-1.2,40.58,40.58,0,0,0,8.77-3.34,39.87,39.87,0,0,0,7.5-5.06,49.3,49.3,0,0,0,6.26-6.45L394.19,54.6a6.4,6.4,0,0,1-.83-.83,45,45,0,0,0-9,5,33.65,33.65,0,0,0-6.79,6.49A28.05,28.05,0,0,0,373.34,73,24.83,24.83,0,0,0,371.84,81.52Z"/><path class="cls-1" d="M472.49,109.13V34.5h3.9a2,2,0,0,1,2.25,1.88l.67,10.8A47.23,47.23,0,0,1,484,41.55a31.07,31.07,0,0,1,5.29-4.39,24.47,24.47,0,0,1,6-2.85,22,22,0,0,1,6.71-1q8.17,0,13,4.76t6.6,13.24a25.91,25.91,0,0,1,3.78-8A23.69,23.69,0,0,1,531,37.69a23.19,23.19,0,0,1,6.85-3.3,26.87,26.87,0,0,1,7.6-1.09,25.73,25.73,0,0,1,10,1.84,19.91,19.91,0,0,1,7.53,5.44,24.65,24.65,0,0,1,4.75,8.85,40.07,40.07,0,0,1,1.65,12v47.7h-7.12V61.42q0-10.95-4.72-16.69T544,39a19.92,19.92,0,0,0-7.46,1.42,18.1,18.1,0,0,0-6.3,4.24,20.35,20.35,0,0,0-4.35,7,27.09,27.09,0,0,0-1.61,9.75v47.7h-7.12V61.42q0-10.87-4.35-16.65T500.09,39a19.17,19.17,0,0,0-11.25,3.64,34.51,34.51,0,0,0-9.22,10.09v56.4Z"/><path class="cls-1" d="M619.94,33.3a30.75,30.75,0,0,1,11.66,2.18,26.22,26.22,0,0,1,9.3,6.34A29.24,29.24,0,0,1,647.05,52a40.67,40.67,0,0,1,2.21,14,3.73,3.73,0,0,1-.49,2.25,1.86,1.86,0,0,1-1.54.6H593.39v1.42a50.59,50.59,0,0,0,2,14.77,30.27,30.27,0,0,0,5.55,10.69,22.88,22.88,0,0,0,8.7,6.49A28.77,28.77,0,0,0,621,104.4a34.13,34.13,0,0,0,9.75-1.24,36.35,36.35,0,0,0,6.94-2.77,37.88,37.88,0,0,0,4.46-2.78,5.06,5.06,0,0,1,2.4-1.24,1.72,1.72,0,0,1,1.5.75l2,2.4a20.36,20.36,0,0,1-4.76,4.2,34,34,0,0,1-6.6,3.34,48,48,0,0,1-7.8,2.21,42.92,42.92,0,0,1-8.36.83,35.5,35.5,0,0,1-14-2.66,29.66,29.66,0,0,1-10.81-7.76,35.53,35.53,0,0,1-7-12.49,53.35,53.35,0,0,1-2.46-16.91,46.09,46.09,0,0,1,2.29-14.81,33.9,33.9,0,0,1,6.6-11.7,30.08,30.08,0,0,1,10.58-7.69A34.74,34.74,0,0,1,619.94,33.3Zm.11,5.33a28,28,0,0,0-10.33,1.8,22.61,22.61,0,0,0-7.9,5.18,26.4,26.4,0,0,0-5.39,8.1,36.88,36.88,0,0,0-2.73,10.57h49.13a32.8,32.8,0,0,0-1.65-10.76,23,23,0,0,0-4.64-8.06,20.11,20.11,0,0,0-7.19-5.06A23.75,23.75,0,0,0,620.05,38.63Z"/></g></g></svg>