<svg width="29" height="29" viewBox="0 0 29 29" fill="none" xmlns="http://www.w3.org/2000/svg">
<path d="M0.000510468 13.6562C0.136673 13.3808 0.237131 13.0794 0.415621 12.8351C0.782799 12.3328 1.31113 12.1028 1.92972 12.0804C2.07863 12.0748 2.22805 12.0804 2.41164 12.0804V11.6933C2.41164 8.98469 2.41164 6.27658 2.41164 3.56897C2.41164 2.07935 3.04553 0.964557 4.40052 0.329135C4.80544 0.139426 5.2838 0.0491607 5.7341 0.0262121C6.63777 -0.0191753 7.54501 0.00632474 8.45072 0.0149942C9.28554 0.0226438 10.0229 0.306186 10.6339 0.874293C11.1168 1.32409 11.5692 1.80652 12.045 2.26498C12.1347 2.35624 12.2508 2.41706 12.377 2.43888C13.8523 2.57811 15.1186 3.71381 15.3945 5.16263C15.429 5.33816 15.4491 5.51623 15.4546 5.69504C15.471 6.358 15.0977 6.77618 14.4322 6.7823C12.857 6.7959 11.2814 6.7959 9.70524 6.7823C9.04482 6.7772 8.66337 6.31312 8.7006 5.64812C8.73935 4.94946 8.97445 4.32679 9.41455 3.72605C9.1713 3.49401 8.93468 3.25381 8.68071 3.03402C8.59305 2.96267 8.48461 2.92169 8.37167 2.91724C7.52257 2.90806 6.67296 2.90398 5.82182 2.91724C5.49595 2.92183 5.32255 3.11816 5.32204 3.44505C5.32 6.27607 5.32 9.10675 5.32204 11.9371C5.32204 11.9733 5.33021 12.0095 5.33837 12.0809C5.53725 12.0809 5.73206 12.0737 5.92636 12.0809C6.87644 12.1207 7.8367 12.0936 8.77454 12.2237C10.1341 12.4124 11.3371 13.0182 12.3989 13.8933C12.4785 13.9596 12.5621 14.0208 12.6615 14.0973C13.1149 13.6781 13.6233 13.341 14.2302 13.1972C14.5668 13.1094 14.9122 13.0596 15.2598 13.0488C17.0055 13.035 18.7511 13.0488 20.4967 13.0427C21.9389 13.0376 23.0675 13.5981 23.8477 14.8322C23.8987 14.9112 24.042 14.9704 24.143 14.9714C25.0865 14.9821 26.0299 14.9714 26.9739 14.9796C28.0025 14.9892 28.7781 15.6007 28.9551 16.5686C29.0078 16.9043 29.0141 17.2456 28.974 17.583C28.9321 18.0032 28.5558 18.326 28.1238 18.3607C27.9479 18.3749 27.7699 18.3607 27.5516 18.3607C27.5516 18.557 27.5516 18.7136 27.5516 18.8706C27.5573 19.7855 27.5618 20.6999 27.2895 21.5888C26.8698 22.9606 26.0885 24.0764 24.9217 24.9102C24.7137 25.0586 24.6122 25.204 24.6387 25.4584C24.6591 25.6538 24.6428 25.8526 24.6428 26.0949C26.0131 26 26.6653 26.6502 26.5842 28.0328C27.1768 28.0328 27.7403 28.0384 28.3039 28.0328C28.5808 28.0287 28.8419 28.0404 28.9622 28.3464C29.0775 28.6381 28.8929 28.8202 28.7072 28.9997H0V28.3209C0.17033 28.0883 0.398281 28.0215 0.682334 28.0302C1.24585 28.0475 1.80988 28.0353 2.41623 28.0353C2.39277 27.4743 2.42031 26.9445 2.83849 26.5217C3.25667 26.099 3.78958 26.0852 4.35106 26.1005C4.35106 25.8547 4.33423 25.6476 4.35565 25.4442C4.38115 25.1989 4.28221 25.0637 4.08383 24.9184C2.50599 23.7628 1.58498 22.2099 1.48299 20.2506C1.40598 18.7753 1.45187 17.2928 1.44167 15.8139C1.44167 15.7053 1.43199 15.5966 1.42485 15.4528C0.778212 15.5548 0.284043 15.3829 0.00202942 14.7899L0.000510468 13.6562ZM24.3506 18.3872V18.7268C24.3506 19.859 24.3506 20.9911 24.3506 22.1237C24.3506 23.1019 23.7651 23.6822 22.7804 23.6837C21.0257 23.6865 19.2706 23.6865 17.5149 23.6837C17.3552 23.6888 17.1954 23.6744 17.0391 23.6409C16.3456 23.4639 15.9422 22.9086 15.9381 22.1222C15.9325 20.9896 15.9381 19.8574 15.9355 18.7248C15.9355 18.6162 15.9253 18.507 15.9187 18.3734C15.7586 18.3734 15.628 18.3734 15.498 18.3734C13.5035 18.3964 11.7446 17.7614 10.2127 16.4865C9.39671 15.8093 8.45326 15.4783 7.39864 15.4727C5.83252 15.4651 4.2659 15.4727 2.69978 15.4727C2.61767 15.4727 2.53506 15.4824 2.44173 15.488C2.43663 15.5783 2.42847 15.6517 2.42847 15.7251C2.42847 17.15 2.42491 18.5749 2.43409 19.9997C2.43553 20.2739 2.4644 20.5472 2.52027 20.8157C3.06084 23.4165 5.17212 25.1326 7.85303 25.1366C12.2789 25.1434 16.7046 25.1414 21.1301 25.1305C21.6248 25.1305 22.1378 25.0836 22.609 24.9464C25.6586 24.0611 26.8974 21.4786 26.5266 18.3918L24.3506 18.3872ZM17.7521 14.0866C18.67 14.9801 18.8867 16.0877 18.8602 17.3045C18.8245 18.917 18.8505 20.5311 18.8521 22.1446C18.8521 22.5353 19.0311 22.7153 19.4222 22.7163C20.5543 22.7187 21.6865 22.7187 22.8186 22.7163C23.1904 22.7163 23.3837 22.5297 23.3847 22.162C23.3877 20.3225 23.4 18.4826 23.3801 16.6426C23.3663 15.3763 22.5131 14.2651 21.2591 14.1152C20.1178 13.9775 18.9474 14.0851 17.7521 14.0851V14.0866ZM21.2158 28.0241C21.1719 27.3454 20.8662 26.7102 20.3631 26.2525C20.2669 26.1682 20.1446 26.1196 20.0168 26.1148C16.3396 26.1076 12.6624 26.1064 8.98516 26.1112C8.89592 26.1112 8.78117 26.1199 8.72201 26.1724C8.15339 26.6543 7.83926 27.2678 7.77603 28.0241H21.2158ZM15.9355 17.3851C15.9355 17.1531 15.9396 16.9465 15.9355 16.74C15.9228 16.253 15.6688 15.9852 15.1869 15.9658C13.888 15.9148 12.7559 15.461 11.7533 14.6302C10.5865 13.6613 9.23504 13.1126 7.71482 13.084C5.79121 13.0488 3.8671 13.0611 1.94298 13.0713C1.21066 13.0753 0.793001 13.7419 1.01688 14.5063H1.32286C3.33214 14.5063 5.34091 14.5135 7.34969 14.5063C8.67561 14.4997 9.84294 14.9179 10.8629 15.7619C12.3234 16.9674 14.0043 17.4932 15.9355 17.3836V17.3851ZM10.999 2.57096C10.7048 2.28691 10.4212 2.02428 10.1509 1.74889C9.63333 1.22209 9.00607 0.974249 8.27325 0.974759C7.49044 0.974759 6.70764 0.974759 5.92738 0.974759C4.41889 0.980368 3.39537 2.00898 3.39435 3.52053C3.39435 6.26451 3.39435 9.00849 3.39435 11.7525V12.062H4.35208V11.7147C4.35208 8.97109 4.35208 6.22711 4.35208 3.48279C4.35208 2.52609 4.95436 1.93911 5.91208 1.93758C6.70407 1.93758 7.49604 1.94319 8.28854 1.93503C8.74751 1.93044 9.13713 2.07833 9.45382 2.41083C9.66189 2.62859 9.86589 2.84992 10.0592 3.05646L10.999 2.57096ZM13.5902 14.6251C14.0915 14.8582 14.6101 14.9536 15.1492 14.9765C16.2594 15.0234 16.9213 15.7195 16.9218 16.8277C16.9218 18.507 16.9387 20.1869 16.9152 21.8657C16.904 22.6725 17.1161 22.7479 17.8051 22.7168C17.8423 22.7138 17.8793 22.7083 17.9158 22.7005C17.902 22.4608 17.8785 22.2364 17.878 22.0115C17.875 20.2776 17.878 18.5397 17.878 16.8037C17.878 15.7736 17.47 14.9541 16.5852 14.4069C15.6505 13.8311 14.3077 13.9295 13.5902 14.6251ZM14.4954 5.78582C14.4301 4.82504 14.0221 4.10037 13.1792 3.67301C12.2949 3.22475 11.4249 3.30532 10.6293 3.89382C10.0046 4.3528 9.69811 4.9918 9.6772 5.78582H14.4954ZM23.6713 25.6915L21.6472 26.1352L22.2949 28.0159H25.5995C25.5995 27.8864 25.5995 27.7752 25.5995 27.6635C25.5964 27.2347 25.4327 27.073 24.9982 27.071C24.7432 27.071 24.4883 27.071 24.2333 27.071C23.8595 27.0659 23.6769 26.8863 23.6723 26.5171C23.6682 26.2356 23.6713 25.9541 23.6713 25.6915ZM7.34408 26.1357L5.33734 25.6925C5.34193 25.6843 5.32664 25.6996 5.32613 25.7149C5.32307 25.9699 5.32255 26.2249 5.32 26.4799C5.31592 26.8879 5.14254 27.0684 4.73813 27.072C4.4551 27.072 4.17257 27.0674 3.89004 27.072C3.61517 27.0791 3.42292 27.2372 3.39946 27.484C3.38263 27.6584 3.39588 27.8354 3.39588 28.0154H6.69539C6.92233 27.3591 7.13398 26.743 7.34408 26.1362V26.1357ZM24.3409 15.9648V17.379H28.0259C28.0259 17.277 28.0203 17.1933 28.0259 17.1107C28.0769 16.4707 27.6644 15.9205 26.8923 15.9607C26.2726 15.9934 25.6505 15.9674 25.0293 15.9674L24.3409 15.9648Z" fill="#5A7E8A"/>
<path d="M10.635 8.26662C10.6202 8.31354 10.5977 8.40533 10.5636 8.49152C10.2678 9.23505 9.97081 9.97808 9.67265 10.7206C9.53189 11.0679 9.27282 11.2025 8.98826 11.0857C8.72001 10.9756 8.63128 10.7028 8.76388 10.3667C9.06527 9.60529 9.37124 8.84595 9.67621 8.0866C9.77514 7.83927 9.95108 7.70566 10.2254 7.74798C10.4626 7.7847 10.6329 7.9892 10.635 8.26662Z" fill="#5A7E8A"/>
<path d="M14.1098 7.7301C14.1894 7.79997 14.3903 7.89533 14.4571 8.04934C14.8008 8.84286 15.116 9.64963 15.4261 10.4569C15.4508 10.516 15.4634 10.5795 15.4632 10.6435C15.4631 10.7076 15.4501 10.771 15.425 10.83C15.4 10.8889 15.3634 10.9423 15.3174 10.9869C15.2714 11.0315 15.217 11.0665 15.1573 11.0898C15.0978 11.1139 15.0341 11.1258 14.9699 11.1249C14.9057 11.124 14.8423 11.1102 14.7835 11.0844C14.7247 11.0586 14.6717 11.0213 14.6275 10.9746C14.5834 10.928 14.549 10.873 14.5265 10.8129C14.197 10.0127 13.8722 9.21003 13.5632 8.40224C13.4382 8.07076 13.6677 7.74438 14.1098 7.7301Z" fill="#5A7E8A"/>
<path d="M11.5982 9.4232C11.5982 9.03766 11.5926 8.65162 11.5982 8.26608C11.6043 7.94123 11.8114 7.72449 12.0913 7.73264C12.3713 7.7408 12.5625 7.94989 12.5646 8.26046C12.5697 9.04242 12.5697 9.82335 12.5646 10.6033C12.5646 10.9159 12.3662 11.1132 12.0832 11.1132C11.8001 11.1132 11.6069 10.9235 11.5997 10.6068C11.5921 10.2157 11.5982 9.82046 11.5982 9.4232Z" fill="#5A7E8A"/>
<path d="M3.38672 20.0337C3.38672 19.9771 3.38672 19.9205 3.38672 19.8639C3.39386 19.5538 3.58 19.3396 3.85182 19.3284C4.12363 19.3172 4.35005 19.54 4.35668 19.8578C4.36191 20.6084 4.62272 21.3349 5.09614 21.9175C5.71167 22.6825 6.51233 23.1073 7.493 23.1802C7.57766 23.1863 7.66282 23.1874 7.74799 23.1996C8.06417 23.2455 8.23348 23.4413 8.21104 23.7305C8.19115 23.9901 7.97799 24.2104 7.68832 24.1685C7.14316 24.089 6.57097 24.037 6.07324 23.8253C4.41839 23.1205 3.54889 21.8186 3.38672 20.0337Z" fill="#5A7E8A"/>
</svg>
