<svg width="17" height="17" viewBox="0 0 17 17" fill="none" xmlns="http://www.w3.org/2000/svg">
<path d="M12.8012 14.9365H1.06677V3.20203H8.11808L9.18485 2.13527H1.06677C0.783841 2.13527 0.512505 2.24766 0.312448 2.44772C0.112391 2.64777 0 2.91911 0 3.20203V14.9365C0 15.2194 0.112391 15.4907 0.312448 15.6908C0.512505 15.8908 0.783841 16.0032 1.06677 16.0032H12.8012C13.0841 16.0032 13.3554 15.8908 13.5555 15.6908C13.7556 15.4907 13.8679 15.2194 13.8679 14.9365V6.93571L12.8012 8.00248V14.9365Z" fill="white"/>
<path d="M15.7514 2.04985L13.9539 0.252353C13.8741 0.172362 13.7794 0.108897 13.675 0.0655933C13.5707 0.0222901 13.4588 0 13.3458 0C13.2329 0 13.121 0.0222901 13.0167 0.0655933C12.9123 0.108897 12.8176 0.172362 12.7378 0.252353L5.42511 7.6077L4.83305 10.1733C4.80783 10.2976 4.81048 10.426 4.84082 10.5493C4.87115 10.6725 4.92842 10.7874 5.0085 10.8859C5.08857 10.9843 5.18947 11.0638 5.30393 11.1186C5.41839 11.1733 5.54357 11.2021 5.67046 11.2027C5.73605 11.2099 5.80223 11.2099 5.86782 11.2027L8.45472 10.632L15.7514 3.26596C15.8314 3.18619 15.8949 3.09142 15.9382 2.98708C15.9815 2.88274 16.0037 2.77088 16.0037 2.65791C16.0037 2.54494 15.9815 2.43308 15.9382 2.32874C15.8949 2.2244 15.8314 2.12962 15.7514 2.04985V2.04985ZM7.9 9.64522L5.94782 10.0773L6.4012 8.14108L11.9057 2.59924L13.4098 4.10337L7.9 9.64522ZM14.0126 3.50065L12.5084 1.99651L13.3352 1.15377L14.85 2.66858L14.0126 3.50065Z" fill="white"/>
</svg>
