<svg xmlns="http://www.w3.org/2000/svg" viewBox="0 0 23.47 23.47"><defs><style>.cls-1,.cls-2{fill:#312c30;}.cls-2{fill-rule:evenodd;}</style></defs><title>fb-round-icon</title><g id="Layer_2" data-name="Layer 2"><g id="Layer_1-2" data-name="Layer 1"><path class="cls-1" d="M11.74,23.47A11.74,11.74,0,1,1,23.47,11.74,11.75,11.75,0,0,1,11.74,23.47M11.74,2a9.76,9.76,0,1,0,9.75,9.76A9.77,9.77,0,0,0,11.74,2"/><path class="cls-2" d="M9.9,11.79v6.8a.18.18,0,0,0,.17.18H12.6a.18.18,0,0,0,.18-.18V11.68h1.83a.17.17,0,0,0,.17-.16L15,9.44a.18.18,0,0,0-.18-.2h-2V7.77a.63.63,0,0,1,.62-.63h1.42A.18.18,0,0,0,15,7V4.88a.18.18,0,0,0-.17-.18H12.43A2.54,2.54,0,0,0,9.9,7.24v2H8.63a.18.18,0,0,0-.17.18V11.5a.18.18,0,0,0,.17.18H9.9Z"/></g></g></svg>