<svg xmlns="http://www.w3.org/2000/svg" viewBox="0 0 23.47 23.47"><defs><style>.cls-1{fill:#312c30;}</style></defs><title>linked-round-icon</title><g id="Layer_2" data-name="Layer 2"><g id="Layer_1-2" data-name="Layer 1"><path class="cls-1" d="M11.74,23.47A11.74,11.74,0,1,1,23.47,11.74,11.75,11.75,0,0,1,11.74,23.47M11.74,2a9.76,9.76,0,1,0,9.75,9.76A9.77,9.77,0,0,0,11.74,2"/><path class="cls-1" d="M18.36,12.36v4.38a.2.2,0,0,1-.19.2H15.91a.2.2,0,0,1-.2-.2V12.67c0-1.07-.38-1.8-1.34-1.8a1.45,1.45,0,0,0-1.36,1,1.77,1.77,0,0,0-.09.64v4.26a.2.2,0,0,1-.19.2H10.47a.2.2,0,0,1-.2-.2c0-1.08,0-6.34,0-7.58A.18.18,0,0,1,10.47,9h2.26a.19.19,0,0,1,.19.19v.93l0,0h0v0a2.63,2.63,0,0,1,2.39-1.31c1.74,0,3,1.14,3,3.58m-12,4.58H8.61a.2.2,0,0,0,.2-.2V9.16A.19.19,0,0,0,8.61,9H6.35a.19.19,0,0,0-.19.19v7.58a.2.2,0,0,0,.19.2"/><path class="cls-1" d="M8.82,6.53A1.42,1.42,0,1,1,7.4,5.11,1.41,1.41,0,0,1,8.82,6.53"/></g></g></svg>