<svg width="16" height="15" viewBox="0 0 16 15" fill="none" xmlns="http://www.w3.org/2000/svg">
<path d="M15.3836 9.01206V14.7004H12.0857V9.39328C12.0857 8.06073 11.6095 7.15072 10.4155 7.15072C9.50421 7.15072 8.96287 7.76338 8.72381 8.35661C8.63699 8.56862 8.61461 8.86302 8.61461 9.16037V14.7001H5.31643C5.31643 14.7001 5.3607 5.71167 5.31643 4.78125H8.61486V6.18685C8.60822 6.19792 8.59887 6.20874 8.59297 6.21931H8.61486V6.18685C9.05314 5.51246 9.83476 4.54834 11.5872 4.54834C13.7569 4.54834 15.3836 5.96598 15.3836 9.01206ZM1.86626 0C0.738092 0 0 0.740553 0 1.71353C0 2.66584 0.716695 3.42779 1.82297 3.42779H1.84437C2.99468 3.42779 3.7099 2.66584 3.7099 1.71353C3.68801 0.740553 2.99467 0 1.86626 0ZM0.196021 14.7004H3.49297V4.78125H0.196021V14.7004Z" fill="white"/>
</svg>
