<svg width="100" height="100" viewBox="0 0 100 100" fill="none" xmlns="http://www.w3.org/2000/svg">
<path d="M50.2778 60.7592C49.863 60.7592 49.5 60.5 49.3444 60.137C49.0333 59.5666 42.5 45.1 42.5 33.2777C42.5 28.974 45.9741 25.5 50.2778 25.5C54.5815 25.5 58.0556 28.974 58.0556 33.2777C58.0556 45.1 51.5222 59.5666 51.2111 60.137C51.0556 60.5 50.6926 60.7592 50.2778 60.7592Z" fill="#FF003D"/>
<path d="M50.276 74.5002C47.1131 74.5002 44.5723 71.9594 44.5723 68.7965C44.5723 65.6335 47.1131 63.0928 50.276 63.0928C53.439 63.0928 55.9798 65.6335 55.9798 68.7965C55.9798 71.9594 53.439 74.5002 50.276 74.5002Z" fill="#FF003D"/>
<path d="M50 89C71.5391 89 89 71.5391 89 50C89 28.4609 71.5391 11 50 11C28.4609 11 11 28.4609 11 50C11 71.5391 28.4609 89 50 89Z" stroke="#FF003D" stroke-width="5"/>
</svg>
