<svg width="26" height="45" viewBox="0 0 26 45" fill="none" xmlns="http://www.w3.org/2000/svg">
<rect x="1" y="1" width="23.9859" height="43" rx="4" stroke="#5A7E8A" stroke-width="2"/>
<path d="M24.9859 4V40.3662C24.9859 42.0231 23.6428 43.3662 21.9859 43.3662H4C2.34315 43.3662 1 42.023 1 40.3662V4C1 2.34314 2.34314 1 4 1H5.15707C5.80899 1 6.44316 1.21235 6.96362 1.60493L7.45868 1.97834C8.32611 2.63262 9.38307 2.98655 10.4696 2.98655H15.5843C16.6183 2.98655 17.6269 2.66597 18.4712 2.06897L19.2043 1.55054C19.7109 1.19234 20.316 1 20.9364 1H21.9859C23.6428 1 24.9859 2.34315 24.9859 4Z" stroke="#5A7E8A" stroke-width="2"/>
</svg>
