<svg width="15" height="12" viewBox="0 0 15 12" fill="none" xmlns="http://www.w3.org/2000/svg">
<path d="M15 1.42062C14.4483 1.66145 13.8548 1.82434 13.2324 1.89709C13.8679 1.52228 14.3555 0.929229 14.5857 0.221406C13.9911 0.568653 13.3322 0.82056 12.6315 0.95634C12.0701 0.367806 11.2703 0 10.3847 0C8.68539 0 7.30722 1.35668 7.30722 3.02943C7.30722 3.26687 7.33453 3.498 7.38731 3.71985C4.82971 3.59356 2.56197 2.38757 1.04402 0.554194C0.77917 1.00152 0.627238 1.52228 0.627238 2.07738C0.627238 3.12816 1.17094 4.0558 1.99624 4.59893C1.49201 4.58334 1.01717 4.44711 0.602451 4.2196C0.602222 4.23248 0.602221 4.24535 0.602221 4.25801C0.602221 5.72584 1.66345 6.95013 3.07101 7.22824C2.81305 7.29783 2.54062 7.33465 2.2604 7.33465C2.06164 7.33465 1.86909 7.3159 1.68135 7.28066C2.07289 8.48393 3.20917 9.35984 4.55614 9.38447C3.50271 10.1971 2.17594 10.6813 0.733728 10.6813C0.485862 10.6813 0.240292 10.667 0 10.6388C1.3612 11.4987 2.97921 12 4.71702 12C10.3775 12 13.4731 7.3839 13.4731 3.38029C13.4731 3.24903 13.4701 3.11822 13.4642 2.98853C14.0659 2.56154 14.5876 2.02813 15 1.42062Z" fill="white"/>
</svg>
