<svg width="21" height="15" viewBox="0 0 21 15" fill="none" xmlns="http://www.w3.org/2000/svg">
<path fill-rule="evenodd" clip-rule="evenodd" d="M18.193 0.437149C19.0673 0.672621 19.7567 1.36191 19.9921 2.23636C20.4294 3.83358 20.4125 7.16289 20.4125 7.16289C20.4125 7.16289 20.4125 10.4752 19.9922 12.0726C19.7567 12.9469 19.0675 13.6363 18.193 13.8717C16.5956 14.2921 10.2063 14.2921 10.2063 14.2921C10.2063 14.2921 3.83358 14.2921 2.21954 13.855C1.34509 13.6195 0.655802 12.9301 0.42033 12.0558C0 10.4752 0 7.14607 0 7.14607C0 7.14607 0 3.83358 0.42033 2.23636C0.655646 1.36206 1.36191 0.655802 2.21938 0.420486C3.81676 0 10.2061 0 10.2061 0C10.2061 0 16.5956 0 18.193 0.437149ZM13.485 7.14598L8.17174 10.2062V4.08577L13.485 7.14598Z" fill="white"/>
</svg>
