<?xml version="1.0" encoding="utf-8"?>
<!-- Generator: Adobe Illustrator 25.2.0, SVG Export Plug-In . SVG Version: 6.00 Build 0)  -->
<svg version="1.1" id="Layer_1" xmlns="http://www.w3.org/2000/svg" xmlns:xlink="http://www.w3.org/1999/xlink" x="0px" y="0px"
	 viewBox="0 0 330.7 230" style="enable-background:new 0 0 330.7 230;" xml:space="preserve">
<style type="text/css">
	.st0{opacity:0.1;fill:#6C63FF;enable-background:new    ;}
	.st1{fill:#5F5D7E;}
	.st2{opacity:0.1;enable-background:new    ;}
	.st3{fill:#474157;}
	.st4{fill:#EDEDF4;}
	.st5{fill:#E6E8EC;}
	.st6{fill:url(#Path_74_1_);}
	.st7{fill:#FDC2CC;}
	.st8{fill:#FFFFFF;}
	.st9{fill:#BE7575;}
	.st10{opacity:0.1;}
	.st11{fill:#2B4CA5;}
	.st12{fill:none;}
	.st13{fill:#FFD037;}
	.st14{fill:#65617D;}
	.st15{fill:#9D9CB5;}
	.st16{fill:#82ABBB;}
	.st17{fill:#D3E4EA;}
	.st18{fill:#D0D3E6;}
	.st19{fill:#9DC3E6;}
	.st20{fill:#F2F6F7;}
	.st21{fill:#C7D9DD;}
	.st22{fill:#A3C1C6;}
	.st23{fill:#719BA8;}
	.st24{fill:#D5E2F2;}
	.st25{fill:#B2C8E0;}
	.st26{opacity:0.49;fill:#FFFFFF;}
	.st27{fill:none;stroke:#FFFFFF;stroke-width:0.4691;stroke-miterlimit:10;}
	.st28{fill:#DAE5E9;}
	.st29{fill:#133A50;}
	.st30{fill:#FEB598;}
	.st31{fill:#242938;}
	.st32{fill:#12353D;}
	.st33{fill:#315C85;}
	.st34{fill:#78A6D2;}
	.st35{fill:#FFBF9F;}
	.st36{fill:#AEBFDE;}
	.st37{fill:#F2EFE8;}
	.st38{fill:#1D374F;}
	.st39{fill:none;stroke:#242938;stroke-width:0.2241;stroke-miterlimit:10;}
	.st40{fill:#35616D;}
	.st41{fill:#597D89;}
</style>
<g id="undraw_press_play_bx2d" transform="translate(0 -33.899)">
	<circle id="Ellipse_37" class="st0" cx="806.8" cy="37.9" r="4"/>
	<ellipse id="Ellipse_38" class="st0" cx="728.8" cy="261.1" rx="27.9" ry="2.8"/>
	<path id="Path_65" class="st1" d="M571.3,161.3l-0.1,6.6l-1,53.5l-8.4,19.6l-28.9,0.3v-77.1L563,162L571.3,161.3z"/>
	<path id="Path_66" class="st2" d="M571.3,161.3l-0.1,6.6l-1,53.5l-8.4,19.6l-28.9,0.3v-77.1L563,162L571.3,161.3z"/>
	<path id="Path_67" class="st1" d="M571.3,161.3l-0.1,6.6l-1,53.5l-8.4,19.6l2.2-73l0,0l-0.9-6L571.3,161.3z"/>
	<path id="Path_68" class="st2" d="M563,162l8.2-0.7l-0.1,6.6L564,168l-31.1,0.4v-4L563,162z"/>
	<path id="Path_69" class="st1" d="M831.1,164.3V241h-6.7l-26.9-19.6v-59.1l24.1-2.3l1.5,0.7l1.4,0.6L831.1,164.3z"/>
	<rect id="Rectangle_55" x="824.4" y="160.6" class="st2" width="6.7" height="80.4"/>
	<path id="Path_70" class="st2" d="M831.1,160.6v4.4l-6.7,0.1l-26.9,0.3v-3.2l24.1-2.3l1.5,0.7l1.4,0.6v-0.6L831.1,160.6z"/>
	<path id="Path_71" class="st1" d="M831.1,158.1v6.2L500.4,168v-7.9l31.1-6.3l270.7-2L831.1,158.1z"/>
	<path id="Path_72" class="st2" d="M831.1,158.1v6.2L500.4,168v-7.9L831.1,158.1z"/>
	<path id="Rectangle_56" class="st3" d="M644.2,64.5h70.2c12.6,0,22.8,10.2,22.8,22.8v44.3c0,12.6-10.2,22.8-22.8,22.8h-70.2
		c-12.6,0-22.8-10.2-22.8-22.8V87.4C621.4,74.8,631.6,64.5,644.2,64.5z"/>
	<rect id="Rectangle_57" x="630.7" y="72.7" class="st4" width="97.3" height="73.4"/>
	<circle id="Ellipse_39" class="st5" cx="626.9" cy="109.3" r="1.6"/>
	<circle id="Ellipse_40" class="st5" cx="732.4" cy="109.5" r="2.6"/>
	<path id="Path_73" class="st3" d="M689.9,109.6l-12.4-7.6c-0.8-0.5-1.9-0.2-2.3,0.7c-0.1,0.3-0.2,0.5-0.2,0.8v14.7
		c0,0.9,0.8,1.7,1.7,1.7c0.3,0,0.6-0.1,0.8-0.2l12.4-7.1c0.8-0.5,1.1-1.5,0.7-2.3C690.4,110,690.2,109.8,689.9,109.6z M699.3,110.9
		c0-9.7-7.9-17.5-17.5-17.5c-9.7,0-17.5,7.9-17.5,17.5c0,9.7,7.9,17.5,17.5,17.5l0,0C691.4,128.4,699.3,120.6,699.3,110.9z
		 M667.6,110.9c0-7.8,6.3-14.1,14.1-14.1s14.1,6.3,14.1,14.1s-6.3,14.1-14.1,14.1l0,0C673.9,125,667.6,118.7,667.6,110.9z"/>
	
		<linearGradient id="Path_74_1_" gradientUnits="userSpaceOnUse" x1="-422.2798" y1="522.3829" x2="-422.2798" y2="523.3829" gradientTransform="matrix(83.2812 0 0 -170.8386 35892.8984 89506)">
		<stop  offset="0" style="stop-color:#808080;stop-opacity:0.251"/>
		<stop  offset="0.54" style="stop-color:#808080;stop-opacity:0.122"/>
		<stop  offset="1" style="stop-color:#808080;stop-opacity:0.102"/>
	</linearGradient>
	<path id="Path_74" class="st6" d="M766.5,168.5c-0.1-0.4-0.2-0.8-0.4-1.2c0.3-0.9,0.4-1.4,0.4-1.4c0-0.1,0-0.2,0-0.3
		c-0.4-2.5-2.6-4.3-5.1-4.3c-2,0-5.8,0.2-9.9,0.6c0.2-1.7,0.5-3.7,0.8-5.7l0.5,0.1c0.1,0,0.3,0,0.4,0h0.2c0.4,0,0.9-0.1,1.2-0.4
		c0.3-0.3,0.3-0.7,0-1c-0.1-0.1-0.1-0.1-0.2-0.2c1,0.1,2-0.3,2.6-1.1c0.6-0.8,0.6-1.9,0-2.7c-0.7-1-2.2-1.7-2.3-2.8
		c0.1-0.7,0.3-1.3,0.7-1.8c1.7-3,1.2-6.8-1.2-9.3c-0.5-0.5-1-0.9-1.5-1.3c-0.7-2.7-1.5-5.1-1.7-5.1c-0.3-0.1-0.8-0.7-1.3-1.3
		c0-0.5,0-0.9,0-1.4c-0.4-2.3-2.6-4-3.9-6c-1.2-2.1-1.6-4.5-1.2-6.9c0.4-2.3,1-4.6,1.8-6.9c0.6-1.7,0.8-3.5,0.4-5.2
		c-0.5-1.2-1.2-2.3-2.1-3.2c-2.1-2.5-4.7-4.5-7.6-6c-2.1-1-4.4-1.5-6.7-1.4h0l-0.4,0l-0.3,0l-0.3,0l-0.3,0l0,0
		c-0.3,0-0.6,0.1-0.8,0.1c-2-0.4-4.1-0.7-6.1-0.7H722c-0.6,0-1.2,0.1-1.8,0.4c-0.7,0.5-0.8,1.4-1,2.2c-0.4,1.3-1.2,2.5-2.4,3.3
		c-0.8,0.6-1.7,1-2.5,1.6c-0.8,0.5-1.2,1.4-1.1,2.4c0.3,0.8,0.9,1.4,1.7,1.6c-0.1,0.1-0.2,0.2-0.3,0.4c0.2,0.1,0.3,0.1,0.5,0.2
		c1,0.3,2.1,0.3,3.1,0.6c0.3,0.1,0.5,0.2,0.8,0.3c-0.9,1.7-1.4,3.6-1.4,5.5c0,4.3,2.4,8.3,6.2,10.3v0.3c0.1,3.5-0.2,7.7-1.9,8.4
		s-3.5,1.5-4.5,2l-0.3,0.2c-0.3-0.1-0.5-0.3-0.8-0.4c0,0-1.4-0.2-1.2,0.9c0,0-4.3-0.7-6.6,1.2c-2.5,2-4.8,4.2-6.9,6.6
		c-0.8,1-6.6,3.2-6.6,3.2c1.1-1.7,1.5-3.7,1-5.7c0,0-0.9-3.8-0.5-5.3s1.5-7.1,1.5-7.1s0.2-5.9-3.1-8.7s-5.5-5-4.2-2.3
		c0.5,1.2,1.2,2.4,1.8,3.5c0,0-7.7,1.8-5,4.7s3.5,2.9,3.5,2.9s-0.9,7.1-1.1,8.4s-1.7,11.4-1.7,11.4s-0.1,4.8,0.8,5.5
		c0.4,1.9,2.1,3.1,4,3c0,0,6.6-0.2,8.4-0.9s8.2-4.7,8.8-4.5c0,0,0.1,0,0.1,0.1c0,0,0.1,0.1,0.1,0.1c-0.7,1.5-2.2,6.4-1.6,8.9
		c0,0-0.6,6.9,2.9,9.2c0,0,5.1,8.6,3.2,13.2c-0.2,0.4-0.3,0.7-0.4,1.1c-2.9-2.4-7.3-4.6-14.1-5.9c-0.7-0.1-1.4-0.3-2.1-0.4
		c-1.9-0.5-7.2-0.9-9.7,7.5c-0.6,1.9-1.3,3.8-2.2,5.7c-1.3,2.4-2,5-2.1,7.7c-0.1,4,2,8,9.5,9.4c0,3.1,0.5,6.2,1.4,9.1
		c2.1,5.2,5.4,13.6,5.4,13.6s4,8.6,4.2,12c0.2,2.4,0.3,4.9,0.2,7.3c0,0.1,0,0.2,0,0.4c-0.3,0.4-0.7,0.7-1.1,1
		c-0.6,0.3-2.5,2.4-2.5,2.9c0,0.5,0,0.9,0.1,1.4c-0.8,0.6-1.3,1.5-1.4,2.5c0,4.5,12.7,8.1,28.4,8.1s28.4-3.6,28.4-8.1
		c0-4.1-10.6-7.5-24.4-8c2.9-1.1,5.4-2.3,6.5-3.3c0.2-0.2,0.4-0.4,0.5-0.7l-2.7-6.2c0,0-0.2,0-0.5,0.1l-0.2-0.3
		c-1.2-1.8-3.5-5.4-3.5-6.4c0-0.4-0.6-2.7-1.5-5.8V214c8.7,1.3,19.9-0.5,19.9-0.5l0,0h0.2v-0.1c1.5-0.8,9-5.2,11.3-11.1
		c0.7-1.7-0.2-4.2-1.8-6.8c1.1-2.8,4-10.2,3.7-13.1c0-0.2,0-0.3,0-0.5c0-0.3,0-0.6,0-0.9c0.3-4.3,3-12.2,3-12.2
		S766.5,168.7,766.5,168.5z M710.2,149.4c0.6,1.1,1.2,2.4,1.5,3l0,0C711.7,152.4,710.9,150.7,710.2,149.4L710.2,149.4z M710.9,242.1
		L710.9,242.1l-0.1-0.3c0-0.9,0-1.7,0.1-2.6c0-0.5-0.1-0.9-0.3-1.3c-1-2.6-1.7-5.2-2-8c-0.3-2.3-0.5-4.5-0.4-6.8
		c0.4-5,0.4-10.1,0.1-15.1l5.1,1.2l6,12.1c0,0,3.8,5.9,5,10.6v4.7c-0.3,1.4-1,2.7-1.8,3.9c-0.8,1.1-1.6,2.2-2.3,3.3
		c-0.2,0.4-0.5,0.7-0.7,1c-0.1,0-4,0.2-4.7,1c-0.6,0.5-1,1.2-1.2,1.9l-0.2,0C712.8,245.7,711.9,243.9,710.9,242.1L710.9,242.1z"/>
	<path id="Path_75" class="st2" d="M736.1,237.9l-1.3,4.3l-5.6,4.9l-8.3,2.4c0,0-3.9-2.1-2.6-2.5c0.5-0.2,0.9-0.6,1.2-1.1
		c-0.5,1.7,3.2-0.5,3.2-0.5s9.5-6.8,10.5-7.5c0.7-0.4,1.4-0.8,2.1-1C735.8,237.5,736.1,237.9,736.1,237.9z"/>
	<path id="Path_76" class="st7" d="M736.1,237.9l-1.3,4.3l-5.6,4.9l-8.3,2.4c0,0-3.9-2.1-2.6-2.5c0.5-0.2,0.9-0.6,1.2-1.1
		c0.4-0.5,0.8-1,1.1-1.6c0.7-1.1,1.5-2.2,2.3-3.3c1.1-1.6,1.9-3.5,2.1-5.5c0.6-4.6-5.3-13.7-5.3-13.7L709,199.7l14.9,1.8
		c0,0,8,27.6,8,28.9c0,1,2.3,4.6,3.4,6.4C735.8,237.5,736.1,237.9,736.1,237.9z"/>
	<ellipse id="Ellipse_41" class="st1" cx="727.8" cy="255.2" rx="28.2" ry="8.1"/>
	<path id="Path_77" class="st8" d="M738.7,243.2c-0.1,0.3-0.3,0.5-0.5,0.7c-2,1.9-9.7,4.7-14.4,6.2c-1.2,0.4-2.5,0.8-3.8,1.1
		c-1.8-0.1-3.6-0.7-5.2-1.7c-1.7-1-0.2-2.5,0.5-3.2s4.6-1,4.6-1c-1.9,3.2,2.8,0.4,2.8,0.4s9.5-6.8,10.5-7.5c0.9-0.5,1.8-0.9,2.8-1.2
		L738.7,243.2z"/>
	<path id="Path_79" class="st2" d="M738.2,243.8c-2,1.9-9.7,4.7-14.4,6.2C728.1,246.4,735.3,244.5,738.2,243.8z"/>
	<ellipse id="Ellipse_42" class="st2" cx="727.8" cy="252.6" rx="5.6" ry="1.6"/>
	<rect id="Rectangle_58" x="724.7" y="209.7" class="st1" width="5.8" height="42.9"/>
	<path id="Path_80" class="st2" d="M730.5,211.9v5c-2-0.9-3.9-1.9-5.8-3v-4h1.2L730.5,211.9z"/>
	<path id="Path_81" class="st3" d="M716.8,191.1c0,0,19.1-4.9,23.9-8.6s23.5,13.7,21,20.2s-11.5,11.3-11.5,11.3s-24.9,4-29.1-4.4
		S716.8,191.1,716.8,191.1z"/>
	<path id="Path_82" class="st2" d="M716.8,191.1c0,0,19.1-4.9,23.9-8.6s23.5,13.7,21,20.2s-11.5,11.3-11.5,11.3s-24.9,4-29.1-4.4
		S716.8,191.1,716.8,191.1z"/>
	<path id="Path_83" class="st3" d="M715.2,189.1c0,0,19.1-4.9,23.9-8.6s23.5,13.7,21,20.2s-11.5,11.3-11.5,11.3s-24.9,4-29.1-4.4
		S715.2,189.1,715.2,189.1z"/>
	<path id="Path_84" class="st7" d="M697.4,144l-2.1-0.8c1.1-1.7,1.5-3.7,1-5.7c0,0-0.9-3.8-0.5-5.3s1.5-7.2,1.5-7.2s0.2-6-3.1-8.7
		s-5.5-5-4.2-2.3c0.5,1.2,1.1,2.4,1.8,3.6c0,0-7.7,1.8-5,4.7s3.5,2.9,3.5,2.9s-0.9,7.1-1.1,8.4s-1.7,11.4-1.7,11.4s-0.1,4.8,0.7,5.5
		c0.4,1.9,2.1,3.1,4,3C693.1,153.5,700.1,145.8,697.4,144z"/>
	<path id="Path_85" class="st7" d="M747.4,128.7v4.6l-4.8,1.6l-8.2,6l-2.2,1.6l-9.7-3.9l-6.1-6.5c0,0,0.3-0.2,0.8-0.4l0.3-0.2
		c1-0.5,2.7-1.3,4.5-2s2-4.9,1.9-8.4v-0.3c-0.1-2.4-0.3-4.4-0.3-4.4s1-0.2,2.5-0.4c4.1-0.6,11.7-1.4,11,1.1c-0.2,0.8-0.2,1.7,0,2.6
		c0,0.1,0,0.2,0.1,0.3c0.6,2.2,1.6,4.3,2.8,6.2l6.6,2.4l0.2,0.1L747.4,128.7z"/>
	<path id="Path_86" class="st7" d="M747.4,130.1v-1.4c0.5-0.1,1.1-0.1,1.6,0c0.6,0.2,1.7,1.9,2.2,2.1s3.5,11.5,3.2,12.5
		s-3.5,23.4-3.5,23.4l-6.3,7l-1.2-19.1l4.1-11.3L747.4,130.1z"/>
	<path id="Path_87" class="st7" d="M714.7,182.2c0,0-5.8,1.2-5,3.1s4,1.9,4,1.9L714.7,182.2z"/>
	<path id="Path_88" class="st7" d="M722.8,145.4l-4.4,9.5l-5.2,3.8l-0.9-5.9c0,0-1.8-3.9-2.5-4.5c0,0-0.1-0.1-0.1-0.1
		c-0.7-0.2-7,3.7-8.8,4.5s-8.4,0.9-8.4,0.9l2.9-10.3c0,0,5.8-2.2,6.5-3.1c2.1-2.4,4.4-4.6,6.9-6.6c2.3-1.8,6.5-1.2,6.5-1.2l0.1,0
		l1.1,0.5l3.1,7.7L722.8,145.4z"/>
	<path id="Path_89" class="st7" d="M711.2,239.7c-0.1,0.9-0.1,1.7-0.1,2.6c0,0.9,0.1,1.7,0.1,1.7l-1.9,4c0,0-6.5,2.2-5.5,1.2
		c0.5-0.6,0.7-1.4,0.7-2.2c0.1-2.4,0-4.9-0.2-7.3c-0.2-3.5-4.2-12.1-4.2-12.1s-3.3-8.4-5.4-13.7s-1.3-14.6-1.3-14.6s0.3-7.1,1.8-9.3
		s7.3-2.9,7.3-2.9l2.7,9c0,0,2.2,8.4,3.1,9.7s0.6,16.1,0.2,17.6c0,2.3,0.1,4.6,0.4,6.9c0.3,2.7,1,5.4,2,8
		C711.2,238.8,711.3,239.2,711.2,239.7z"/>
	<path id="Path_90" class="st2" d="M711.2,244l-1.9,4c0,0-6.5,2.2-5.5,1.2c0.5-0.6,0.7-1.4,0.7-2.2c0.2-0.2,0.5-0.5,0.7-0.8
		c1.7-1.7,3.7-3.1,5.9-3.9l0,0C711.2,243.2,711.2,244,711.2,244z"/>
	<path id="Path_91" class="st8" d="M714.2,249.9C714.2,249.9,714.2,249.9,714.2,249.9c-0.3,1.6-5.8,3.8-5.8,3.8s-3.5,0.6-5.5,1.1
		c-0.2,0-0.3,0.1-0.5,0c-1.5-0.1-1.6-3.1-1.6-3.5c0.6-1.1,1.5-2.1,2.5-2.9c0.7-0.5,1.3-1.1,1.8-1.8c1.7-1.8,3.8-3.1,6-4l0,0
		C711.3,242.6,714.5,248.3,714.2,249.9z"/>
	<path id="Path_93" class="st2" d="M714.2,249.9C714.2,249.9,714.2,249.9,714.2,249.9c-0.3,1.6-5.8,3.8-5.8,3.8s-3.5,0.6-5.5,1.1
		c-0.2,0-0.3,0.1-0.5,0c1.8-1.2,6.2-4.2,6.8-4.3S712.8,249.6,714.2,249.9z"/>
	<path id="Path_94" class="st2" d="M737.2,119.9c-2,1.7-3.9,1.4-6.8,1.4c-2.1,0-4.8,0.7-6.4-0.2c-0.1-2.6-0.3-4.8-0.3-4.8
		s14.4-2.7,13.5,0.7C737,118,737,119,737.2,119.9z"/>
	<path id="Path_95" class="st7" d="M741.5,110.5c0,6.5-5.3,11.8-11.8,11.8l0,0c-0.3,0-0.6,0-0.9,0l0,0c-6.5-0.5-11.4-6.2-10.9-12.7
		s6.2-11.4,12.7-10.9C736.8,99.1,741.5,104.3,741.5,110.5L741.5,110.5z"/>
	<path id="Path_96" class="st2" d="M719.6,140.5l3.1,5l-4.4,9.5l-5.2,3.8l-0.9-5.9c0,0-1.8-3.9-2.5-4.5c0.2-0.5,0.4-0.8,0.4-0.6
		c0,0.8,2,4.6,2,4.6c6.3-2.2,4.3-10.5,4.3-10.5s-0.8-7.4-1.1-9.4l1.1,0.5L719.6,140.5z"/>
	<path id="Path_97" class="st2" d="M747.4,128.7v4.6l-4.8,1.6l-8.2,6l-2.2,1.6l-9.7-3.9l-6.1-6.5c0,0,0.3-0.2,0.8-0.4l0.3-0.2
		c5.3,2.2,11,3.2,16.7,3c12.5-2,12.8-5,12.5-6.1L747.4,128.7z"/>
	<path id="Path_98" class="st9" d="M751,203.8c-3.1,1.5-6.3,2.9-9.6,4.1c-5.7,2.1-18.3-0.7-19.9-1.1s-13.7-5.2-18.3-7
		s-5.8-0.3-6.9-0.5s-1.8-2.2-2-2.8s3-5.6,4.7-8.2s7-2.1,7.7-2.2s6,0,6,0s-0.3-1.7,1.6-6.3s-3.1-13.2-3.1-13.2
		c-3.5-2.2-2.9-9.2-2.9-9.2c-0.8-3.1,1.8-10.1,1.8-9.3s2,4.6,2,4.6c6.3-2.2,4.3-10.5,4.3-10.5s-0.9-8.7-1.2-9.8s1.2-0.9,1.2-0.9
		c0.3,0.1,0.5,0.3,0.8,0.4c5.4,2.3,11.2,3.4,17.1,3.2c15.1-2.4,12.4-6.3,12.3-6.5l0.7,0.3c5.5,4,3.8,17.1,3.8,17.1l-2,9.8l-1.5,7.3
		c0,0,5.4,32.6,5.9,34.3S751,203.8,751,203.8z"/>
	<path id="Path_99" class="st2" d="M710.7,188.9c-0.3,0.2-4.1,7.9-1.3,10.1S710.7,188.9,710.7,188.9z"/>
	<path id="Path_100" class="st2" d="M713.3,190c0.1,0.2,7.8,12.5,12,13.5L713.3,190z"/>
	<path id="Path_101" class="st2" d="M731.9,93l-1.2,0.3c0.3-0.1,0.7-0.2,1-0.3L731.9,93z"/>
	<path id="Path_102" class="st2" d="M750.4,145.8l-2.3,9.8c-1.2-0.5-2.3-1.3-3.2-2.2c-0.7-0.8-1.5-1.4-2.3-2
		c-1.3-0.5-2.7-0.7-4.1-0.6c-1.7-0.1-3.4-0.4-5.1-0.9c-0.5-0.1-0.9-0.3-1.3-0.6c-0.6-0.8-0.9-1.8-0.7-2.8c0.1-1.9,0.2-3.8,0-5.7
		c0-0.4,0-0.7-0.1-1.1c-0.1-1.6-0.6-3.5-2.2-4.1c-0.8-0.3-1.8-0.3-2.6-0.7c-0.1-0.1-0.2-0.1-0.3-0.2c-1.2-0.8-1.3-2.5-1.3-3.9
		c0.1-1.9,0.1-3.9,0.2-5.8c0.1-1,0-1.9-0.1-2.9l0,0c-0.1-0.6-0.3-1.2-0.5-1.8c-0.7-1.5-2.2-2.8-2.5-4.4c0-0.1,0-0.2,0-0.2
		c-0.1-1.5,0.8-2.8,1.1-4.2c0.6-2.9-1.5-6-4.7-6.8c-1-0.3-2.1-0.3-3-0.6c-0.2,0-0.3-0.1-0.5-0.2c2.7-3.4,6.8-5.4,11.2-5.3
		c7.4,0,13.4,5.3,13.4,11.8c-0.1,3.7-1.9,7.1-4.9,9.2c0,0.1,0,0.2,0.1,0.3c0.7,2.2,1.8,4.3,3.2,6.2l7.5,2.4l0.8,0.3
		C752.3,132.7,750.4,145.8,750.4,145.8z"/>
	<path id="Path_103" class="st2" d="M754.5,155.4c-0.1,0-0.1,0-0.2,0C754.3,155.3,754.4,155.3,754.5,155.4z"/>
	<path id="Path_104" class="st3" d="M728.9,92.7c-2.1-0.5-4.2-0.7-6.3-0.7c-0.7-0.1-1.4,0.1-2,0.4c-0.7,0.5-0.8,1.4-1,2.2
		c-0.4,1.3-1.2,2.5-2.4,3.3c-0.8,0.6-1.7,1-2.5,1.6c-0.8,0.5-1.2,1.4-1.1,2.4c0.4,0.9,1.2,1.6,2.2,1.8c1,0.3,2,0.3,3,0.6
		c3.2,0.8,5.3,4,4.7,6.8c-0.3,1.4-1.2,2.8-1.1,4.2c0.2,1.7,1.8,3.1,2.5,4.7c0.6,1.5,0.8,3.1,0.6,4.7l-0.2,5.8
		c-0.1,1.5,0.1,3.4,1.6,4.1c0.8,0.4,1.8,0.4,2.6,0.7c1.6,0.7,2.1,2.5,2.2,4.1c0.2,2.3,0.2,4.5,0,6.8c-0.2,1,0,2,0.7,2.8
		c0.4,0.3,0.8,0.5,1.3,0.6c1.7,0.5,3.4,0.8,5.1,0.9c1.4-0.1,2.8,0.1,4.1,0.6c0.9,0.5,1.7,1.2,2.3,2c2.1,1.9,4.8,3.1,7.7,3.4
		c0.6,0.1,1.2,0,1.7-0.4c0.4-0.4,0.2-1.2-0.4-1.2c1.1,0.2,2.1-0.2,2.8-1.1c0.6-0.8,0.6-1.9,0-2.7c-0.7-1-2.2-1.7-2.2-2.8
		c0.1-0.7,0.3-1.3,0.7-1.9c1.7-3,1.2-6.8-1.2-9.3c-1.6-1.6-3.9-2.8-4.4-4.9c-0.4-1.4,0.2-2.8,0-4.2c-0.3-2.3-2.6-4-3.9-6
		c-1.2-2.1-1.6-4.5-1.2-6.9c0.4-2.3,1-4.7,1.8-6.9c0.6-1.7,0.8-3.5,0.4-5.2c-0.5-1.2-1.2-2.3-2.1-3.2c-2.1-2.5-4.6-4.5-7.5-6
		c-3.1-1.5-6.6-1.8-9.8-0.9"/>
	<path id="Path_105" class="st2" d="M728.9,92.7c-2.1-0.5-4.2-0.7-6.3-0.7c-0.7-0.1-1.4,0.1-2,0.4c-0.7,0.5-0.8,1.4-1,2.2
		c-0.4,1.3-1.2,2.5-2.4,3.3c-0.8,0.6-1.7,1-2.5,1.6c-0.8,0.5-1.2,1.4-1.1,2.4c0.4,0.9,1.2,1.6,2.2,1.8c1,0.3,2,0.3,3,0.6
		c3.2,0.8,5.3,4,4.7,6.8c-0.3,1.4-1.2,2.8-1.1,4.2c0.2,1.7,1.8,3.1,2.5,4.7c0.6,1.5,0.8,3.1,0.6,4.7l-0.2,5.8
		c-0.1,1.5,0.1,3.4,1.6,4.1c0.8,0.4,1.8,0.4,2.6,0.7c1.6,0.7,2.1,2.5,2.2,4.1c0.2,2.3,0.2,4.5,0,6.8c-0.2,1,0,2,0.7,2.8
		c0.4,0.3,0.8,0.5,1.3,0.6c1.7,0.5,3.4,0.8,5.1,0.9c1.4-0.1,2.8,0.1,4.1,0.6c0.9,0.5,1.7,1.2,2.3,2c2.1,1.9,4.8,3.1,7.7,3.4
		c0.6,0.1,1.2,0,1.7-0.4c0.4-0.4,0.2-1.2-0.4-1.2c1.1,0.2,2.1-0.2,2.8-1.1c0.6-0.8,0.6-1.9,0-2.7c-0.7-1-2.2-1.7-2.2-2.8
		c0.1-0.7,0.3-1.3,0.7-1.9c1.7-3,1.2-6.8-1.2-9.3c-1.6-1.6-3.9-2.8-4.4-4.9c-0.4-1.4,0.2-2.8,0-4.2c-0.3-2.3-2.6-4-3.9-6
		c-1.2-2.1-1.6-4.5-1.2-6.9c0.4-2.3,1-4.7,1.8-6.9c0.6-1.7,0.8-3.5,0.4-5.2c-0.5-1.2-1.2-2.3-2.1-3.2c-2.1-2.5-4.6-4.5-7.5-6
		c-3.1-1.5-6.6-1.8-9.8-0.9"/>
	<path id="Path_106" class="st2" d="M711.2,166.5c0,0,2.8,1.1,5.8-1.9S711.2,166.5,711.2,166.5z"/>
	<g id="Group_116" transform="translate(213.048 92.004)" class="st10">
		<path id="Path_107" d="M517.1,0.7c0.5-0.1,1.1-0.2,1.7-0.2c-0.8,0-1.5,0-2.3,0.1L517.1,0.7z"/>
		<path id="Path_108" d="M533.7,61.2c-0.7-0.8-1.5-1.4-2.4-2c-1.3-0.5-2.7-0.7-4.1-0.6c-1.7-0.1-3.4-0.4-5.1-0.9
			c-0.5-0.1-0.9-0.3-1.3-0.6c-0.6-0.8-0.9-1.8-0.7-2.8c0.2-2.3,0.2-4.5,0-6.8c-0.1-1.6-0.6-3.5-2.2-4.1c-0.8-0.4-1.8-0.3-2.6-0.7
			c-1.5-0.7-1.7-2.6-1.6-4.1c0.1-1.9,0.1-3.9,0.2-5.8c0.2-1.6,0-3.2-0.6-4.7c-0.8-1.6-2.4-2.9-2.5-4.7c-0.1-1.4,0.8-2.8,1.1-4.2
			c0.6-2.9-1.5-6-4.7-6.8c-1-0.3-2.1-0.3-3-0.6c-1-0.2-1.8-0.9-2.2-1.8c-0.1-0.9,0.3-1.9,1.1-2.4c0.8-0.6,1.7-1,2.5-1.6
			c1.1-0.8,2-2,2.4-3.3c0.1-0.8,0.4-1.6,1-2.2c0.4-0.3,0.9-0.4,1.4-0.4c-0.3,0-0.6,0-0.9,0c-0.7-0.1-1.4,0.1-2,0.4
			c-0.7,0.5-0.8,1.4-1,2.2C506,4,505.2,5.2,504.1,6c-0.8,0.6-1.7,1-2.5,1.6c-0.8,0.5-1.2,1.4-1.1,2.4c0.4,0.9,1.2,1.6,2.2,1.8
			c1,0.3,2,0.3,3,0.6c3.2,0.8,5.3,4,4.7,6.8c-0.3,1.4-1.2,2.8-1.1,4.2c0.2,1.7,1.8,3.1,2.5,4.7c0.6,1.5,0.8,3.1,0.6,4.7
			c-0.1,1.9-0.1,3.9-0.2,5.8c-0.1,1.5,0.1,3.4,1.6,4.1c0.8,0.4,1.8,0.4,2.6,0.7c1.6,0.7,2.1,2.5,2.2,4.1c0.2,2.3,0.2,4.5,0,6.8
			c-0.2,1,0,2,0.7,2.8c0.4,0.3,0.8,0.5,1.3,0.6c1.7,0.5,3.4,0.8,5.1,0.9c1.4-0.1,2.8,0.1,4.1,0.6c0.9,0.5,1.7,1.2,2.4,2
			c2.1,1.9,4.8,3.1,7.7,3.4c0.4,0,0.7,0,1.1,0C538.2,64.2,535.7,63,533.7,61.2z"/>
	</g>
	<path id="Path_109" class="st2" d="M695.4,143.2c0,0-2.6,2.4-2.3,3.4S695.4,143.2,695.4,143.2z"/>
	<path id="Path_110" class="st3" d="M697.8,174.4c-1.9-0.5-7.2-0.9-9.7,7.5c-0.6,2-1.3,3.9-2.2,5.7c-2.4,4.9-5.5,15.1,8.1,17.3
		l32.8,7.4c0,0,17.5,2.2,18.7,1.3c0.7-0.7,1.1-1.7,1-2.6c0,0-19.4,0-23.2-6s-4-14.1-4-14.1s0.5-12.5-19.5-16.2
		C699.2,174.8,698.5,174.6,697.8,174.4z"/>
	<path id="Path_111" class="st2" d="M697.8,174.5c-1.9-0.5-7.2-0.9-9.7,7.5c-0.6,2-1.3,3.9-2.2,5.7c-2.4,4.9-5.5,15.1,8.1,17.3
		l32.8,7.4c0,0,17.5,2.2,18.7,1.3c0.7-0.7,1.1-1.7,1-2.6c0,0-19.4,0-23.2-6s-4-14.1-4-14.1s0.5-12.5-19.5-16.2
		C699.2,174.8,698.5,174.6,697.8,174.5z"/>
	<path id="Path_112" class="st3" d="M766.5,165.9c-0.4-2.5-2.6-4.3-5.1-4.3c-4.7,0.1-19.2,0.7-26,5.1c0,0-5.1,3.3-6.6,3.3
		s-21.7,17.2,8.3,32.6c0,0,16.1,4.6,22.3-6.2c0,0,4.5-11.5,4.1-15.5s3-14.7,3-14.7S766.5,166.1,766.5,165.9z"/>
	<path id="Path_113" class="st2" d="M766.5,168.8c-0.5-2.4-2.7-4.1-5.1-3.9c-4.7,0.1-19.2,0.7-26,4.7c0,0-5.1,3.1-6.6,3.1
		s-21.7,15.9,8.3,30.1c0,0,16.1,4.2,22.3-5.7c0,0,4.5-10.6,4.1-14.3s3-13.6,3-13.6S766.5,169,766.5,168.8z"/>
	<rect id="Rectangle_59" x="745.2" y="202.6" class="st1" width="5.3" height="11.3"/>
	<ellipse id="Ellipse_43" class="st2" cx="556.8" cy="155.8" rx="14.9" ry="1"/>
	<path id="Path_114" class="st11" d="M569.3,118.9c-0.3,0.4-0.6,0.9-0.8,1.4c0,0.1-0.1,0.3-0.1,0.4c-0.1,0-0.2-0.1-0.3-0.1
		c-0.4-0.1-0.8-0.1-1.2-0.1c0-0.2,0-0.3,0-0.5c0-1.7-0.2-4.2-1.8-3.1c-1.6,1-0.5,2.6,0.6,3.7l0.3,0.3c-0.9,0.7-1.1,2.2-1.3,3.9
		c-0.2,1.6-1.5,3.4-2.5,4.4c-0.1,0.1-0.2,0.2-0.3,0.3c-0.7-0.6-1.7-0.8-2.7-0.7c0-0.1-0.1-0.3-0.1-0.5c-0.7-2.7-2.3-7.3-4.2-8.3
		l0.3-0.3c0.8-1.1,1.8-2.7,0.4-3.1s-1.5,1.4-1.4,2.8c0,0.2,0,0.3,0,0.5c-0.6,0-1.1,0.3-1.5,0.7l-0.2-0.3c-1.1-1.3-3.2-3.4-3.8-1.8
		c-0.6,1.5,1.2,3.4,2.5,4.5l0.1,0.1c-0.9,3.5,2.9,6.3,4.9,7.6l0.3,0.2c-2.8,3.3-4.5,9.4-4.5,9.4l7.8,1.4c0,0,5.2-4.5,4.5-8.6h0.1
		c5.2-1,6.3-6.5,5.5-9.8l0.1,0c0.9-0.4,1.8-1,2.4-1.8C573.8,119.2,570.8,116.9,569.3,118.9z"/>
	<path id="Path_115" class="st12" d="M569.3,118.9c-0.3,0.4-0.6,0.9-0.8,1.4c0,0.1-0.1,0.3-0.1,0.4c-0.1,0-0.2-0.1-0.3-0.1
		c-0.4-0.1-0.8-0.1-1.2-0.1c0-0.2,0-0.3,0-0.5c0-1.7-0.2-4.2-1.8-3.1c-1.6,1-0.5,2.6,0.6,3.7l0.3,0.3c-0.9,0.7-1.1,2.2-1.3,3.9
		c-0.2,1.6-1.5,3.4-2.5,4.4c-0.1,0.1-0.2,0.2-0.3,0.3c-0.7-0.6-1.7-0.8-2.7-0.7c0-0.1-0.1-0.3-0.1-0.5c-0.7-2.7-2.3-7.3-4.2-8.3
		l0.3-0.3c0.8-1.1,1.8-2.7,0.4-3.1s-1.5,1.4-1.4,2.8c0,0.2,0,0.3,0,0.5c-0.6,0-1.1,0.3-1.5,0.7l-0.2-0.3c-1.1-1.3-3.2-3.4-3.8-1.8
		c-0.6,1.5,1.2,3.4,2.5,4.5l0.1,0.1c-0.9,3.5,2.9,6.3,4.9,7.6l0.3,0.2c-2.8,3.3-4.5,9.4-4.5,9.4l7.8,1.4c0,0,5.2-4.5,4.5-8.6h0.1
		c5.2-1,6.3-6.5,5.5-9.8l0.1,0c0.9-0.4,1.8-1,2.4-1.8C573.8,119.2,570.8,116.9,569.3,118.9z"/>
	<path id="Path_116" class="st8" d="M553.8,121.2l-0.9,2.7c0,0-0.5-0.4-1.1-0.9c-1.3-1.1-3.1-3-2.5-4.5c0.6-1.6,2.7,0.5,3.8,1.8
		C553.5,120.7,553.8,121.2,553.8,121.2z"/>
	<path id="Path_117" class="st8" d="M555.7,119.6c-0.3,0.4-0.6,0.7-0.9,1c-0.1-0.5-0.1-0.9-0.2-1.4c-0.1-1.4,0.1-3.2,1.4-2.8
		S556.5,118.5,555.7,119.6z"/>
	<path id="Path_118" class="st8" d="M567.5,120.1c0,0.9-0.1,1.6-0.1,1.6c-0.4-0.3-0.8-0.7-1.1-1c-1-1.1-2.2-2.7-0.6-3.7
		C567.3,115.9,567.5,118.3,567.5,120.1z"/>
	<path id="Path_119" class="st8" d="M572.8,121.2c-0.6,0.8-1.5,1.4-2.4,1.8c-0.3,0.1-0.5,0.2-0.8,0.3l-1.1-1.5
		c0.1-0.5,0.3-1,0.4-1.5c0.2-0.5,0.4-1,0.8-1.4c0.6-0.8,1.8-1,2.7-0.4S573.5,120.4,572.8,121.2z"/>
	<path id="Path_120" class="st2" d="M553,120.2c0.5,0.5,0.8,0.9,0.8,0.9l-0.9,2.7c0,0-0.5-0.4-1.1-0.9c0.1-0.9,0.5-1.7,1-2.3
		C552.9,120.4,552.9,120.3,553,120.2z"/>
	<path id="Path_121" class="st2" d="M555.7,119.6c-0.3,0.4-0.6,0.7-0.9,1c-0.1-0.5-0.1-0.9-0.2-1.4
		C555,119.3,555.4,119.4,555.7,119.6z"/>
	<path id="Path_122" class="st8" d="M560.2,130.2l-2.3,1c0,0-0.5-0.2-1.2-0.7c-2.4-1.5-7.2-5.1-4-9.5c3.2-4.3,5.9,3.4,6.9,7.3
		C560,129.4,560.2,130.2,560.2,130.2z"/>
	<path id="Path_123" class="st2" d="M566.2,120.6c0.3-0.3,0.8-0.5,1.2-0.6c0,0.9-0.1,1.6-0.1,1.6C566.9,121.3,566.6,121,566.2,120.6
		z"/>
	<path id="Path_124" class="st2" d="M570.4,123c-0.3,0.1-0.5,0.2-0.8,0.3l-1.1-1.5c0.1-0.5,0.3-1,0.4-1.5
		C569.8,121,570.4,122,570.4,123z"/>
	<path id="Path_125" class="st8" d="M564.8,132.9l-0.4,0.1c-7.6,1.2-2.5-2.9-2.5-2.9s0.3-0.3,0.8-0.8c0.9-1,2.3-2.8,2.5-4.4
		c0.2-2.5,0.5-4.8,3.4-4.1C571.5,121.3,572,131.4,564.8,132.9z"/>
	<rect id="Rectangle_60" x="550.2" y="151.7" class="st3" width="14.5" height="3.8"/>
	<rect id="Rectangle_61" x="547.9" y="139.4" class="st3" width="18.9" height="13.3"/>
	<rect id="Rectangle_62" x="550" y="151.7" class="st2" width="14.5" height="3.8"/>
	<rect id="Rectangle_63" x="547.8" y="139.4" class="st2" width="18.9" height="13.3"/>
	<rect id="Rectangle_64" x="551.1" y="151.7" class="st3" width="14.5" height="3.8"/>
	<path id="Path_126" class="st2" d="M559.7,128.3c0.3,1.1,0.5,1.9,0.5,1.9l-2.3,1c0,0-0.5-0.2-1.2-0.7
		C557.4,129.5,558.5,128.7,559.7,128.3z"/>
	<path id="Path_127" class="st2" d="M564.8,132.9l-0.4,0.1c-7.6,1.2-2.5-2.9-2.5-2.9s0.3-0.3,0.8-0.8
		C563.9,130,564.7,131.4,564.8,132.9z"/>
	<path id="Path_128" class="st8" d="M552.5,140.1c0,0,4.2-15.2,10.2-10.5s-2.4,11.9-2.4,11.9L552.5,140.1z"/>
	<circle id="Ellipse_44" class="st2" cx="554.6" cy="123.4" r="0.5"/>
	<circle id="Ellipse_45" class="st2" cx="554.6" cy="125.6" r="0.5"/>
	<circle id="Ellipse_46" class="st2" cx="568.4" cy="123.9" r="0.5"/>
	<circle id="Ellipse_47" class="st2" cx="557.3" cy="135.3" r="0.5"/>
	<circle id="Ellipse_48" class="st2" cx="567.4" cy="127.6" r="0.5"/>
	<circle id="Ellipse_49" class="st2" cx="562.5" cy="132.5" r="0.5"/>
	<circle id="Ellipse_50" class="st2" cx="556.3" cy="124.4" r="0.5"/>
	<circle id="Ellipse_51" class="st2" cx="567.1" cy="125.3" r="0.5"/>
	<circle id="Ellipse_52" class="st2" cx="565.5" cy="129" r="0.5"/>
	<circle id="Ellipse_53" class="st2" cx="560.5" cy="134.9" r="0.5"/>
	<circle id="Ellipse_54" class="st2" cx="559.4" cy="132.6" r="0.5"/>
	<circle id="Ellipse_55" class="st2" cx="557" cy="127.3" r="0.5"/>
	<rect id="Rectangle_65" x="551.1" y="151.7" class="st2" width="14.5" height="1.4"/>
	<rect id="Rectangle_66" x="548.8" y="139.4" class="st3" width="18.9" height="13.3"/>
	<circle id="Ellipse_56" class="st2" cx="561.1" cy="137" r="0.5"/>
	<circle id="Ellipse_57" class="st2" cx="558.2" cy="137.6" r="0.5"/>
	<path id="Path_129" class="st8" d="M603.7,190.2c0,0,2.4,3.1-1.1,7.7s-6.3,8.6-5.1,11.5c0,0,5.2-8.7,9.5-8.8
		C611.1,200.6,608.3,195.4,603.7,190.2z"/>
	<path id="Path_130" class="st2" d="M603.7,190.2c0.2,0.3,0.4,0.6,0.5,1c4.1,4.9,6.3,9.4,2.4,9.5c-3.7,0.1-8.1,6.7-9.2,8.4
		c0,0.1,0.1,0.3,0.1,0.4c0,0,5.2-8.7,9.5-8.8C611.1,200.5,608.3,195.4,603.7,190.2z"/>
	<path id="Path_131" class="st13" d="M608.1,194.1c0,1.1-0.1,2-0.3,2s-0.3-0.9-0.3-2s0.2-0.6,0.3-0.6
		C608,193.6,608.1,193,608.1,194.1z"/>
	<path id="Path_132" class="st13" d="M609.6,195.4c-1,0.5-1.8,0.8-1.9,0.7s0.6-0.7,1.6-1.2s0.6-0.1,0.7,0S610.5,194.9,609.6,195.4z"
		/>
	<path id="Path_133" class="st8" d="M591.2,190.2c0,0-2.4,3.1,1.1,7.7s6.3,8.6,5.1,11.5c0,0-5.2-8.7-9.4-8.8
		C583.7,200.6,586.5,195.4,591.2,190.2z"/>
	<path id="Path_134" class="st2" d="M591.2,190.2c-0.2,0.3-0.4,0.6-0.5,1c-4.1,4.9-6.3,9.4-2.4,9.5c3.7,0.1,8.1,6.7,9.2,8.4
		c0,0.1-0.1,0.3-0.1,0.4c0,0-5.2-8.7-9.4-8.8C583.7,200.6,586.5,195.4,591.2,190.2z"/>
	<path id="Path_135" class="st13" d="M586.8,194.1c0,1.1,0.1,2,0.3,2s0.3-0.9,0.3-2s-0.2-0.6-0.3-0.6
		C586.9,193.6,586.8,193,586.8,194.1z"/>
	<path id="Path_136" class="st13" d="M585.3,195.4c1,0.5,1.8,0.8,1.9,0.7s-0.6-0.7-1.6-1.2s-0.6-0.1-0.7,0S584.3,194.9,585.3,195.4z
		"/>
	<ellipse id="Ellipse_58" class="st0" cx="597.4" cy="229.3" rx="24.7" ry="3.8"/>
	<path id="Path_137" class="st14" d="M610.1,205.3l-0.1,1l-0.2,1.4l-0.1,0.6l-0.2,1.4l-0.1,0.6l-0.2,1.4l-1.9,15.5
		c-0.2,1.4-2.4,2.5-5.2,2.5h-9.8c-2.7,0-5-1.1-5.1-2.5l-1.9-15.5l-0.2-1.4l-0.1-0.6l-0.2-1.4l-0.1-0.6l-0.2-1.4l-0.1-1
		c-0.1-0.8,1.1-1.4,2.7-1.4h20.1C609,203.9,610.2,204.5,610.1,205.3z"/>
	<path id="Path_138" class="st15" d="M610,206.3l-0.2,1.4H585l-0.2-1.4H610z"/>
	<path id="Path_139" class="st15" d="M609.8,208.2l-0.2,1.4h-24.4l-0.2-1.4H609.8z"/>
	<path id="Path_140" class="st15" d="M609.5,210.1l-0.2,1.4h-23.9l-0.2-1.4H609.5z"/>
</g>
<path class="st16" d="M1.8,230h316.5c-14.3-46.6,9.8-95.2,12.1-126.9c3-42.5-17.3-71.1-45.9-72c-18.9-0.6-37.8,13.9-73.8-5.4
	c-15.1-8.1-21.3-15.3-31.2-19.7c-23.7-10.6-49.2-9.3-70.9,21.1C85.8,59,86.4,104.5,70.9,140.6c-13.4,31.1-43.7,29.6-61.8,52.5
	c-6.2,7.9-10.3,18.1-8.8,30.2C0.6,225.1,1.1,227.6,1.8,230z"/>
<g>
	<g>
		<rect x="86.6" y="91.8" class="st17" width="104.2" height="137.7"/>
		<rect x="86.6" y="91.8" class="st18" width="108.7" height="9.2"/>
		<g>
			<rect x="86.6" y="198.9" class="st19" width="104.2" height="30.7"/>
			<g>
				<polygon class="st20" points="190.6,229.5 133.3,229.5 133.3,150.6 190.6,123.6 				"/>
				<rect x="133.3" y="198.9" class="st21" width="57.3" height="30.7"/>
				<rect x="52.6" y="150.6" class="st17" width="86.4" height="78.9"/>
				<rect x="52.6" y="150.6" class="st18" width="80.8" height="6.4"/>
				<rect x="52.6" y="198.9" class="st22" width="86.4" height="30.7"/>
				<polygon class="st18" points="190.6,127.8 133.3,157 133.3,150.6 190.6,123.6 				"/>
			</g>
			<polygon class="st23" points="195.1,117.5 100.9,117.5 42.5,150.4 130.9,150.4 			"/>
			<polygon class="st18" points="177.7,126.4 195.1,117.5 100.9,117.5 85.1,126.4 			"/>
			<polygon class="st8" points="133.2,155 42.9,155 42.1,147.9 132.4,147.9 			"/>
			<polygon class="st8" points="196.6,115 132.4,147.9 133.2,155 195.1,123.6 			"/>
		</g>
		<g>
			<polygon class="st20" points="284,87.4 284,229.5 190.7,229.5 190.7,87.4 237.4,59.4 			"/>
			<rect x="190.7" y="198.9" class="st21" width="93.3" height="30.7"/>
			<polygon class="st18" points="284.5,87.4 284.5,97.1 238.9,70.2 190.6,100.6 190.6,93.7 237.9,59.4 			"/>
			<polygon class="st8" points="299,91.8 242.3,54.9 185.7,91.8 189.3,99.2 242.3,64.6 295.4,99.2 			"/>
			<polygon class="st23" points="242.3,54.9 124.6,54.9 77.2,91.8 185.7,91.8 			"/>
			<rect x="77.2" y="89.8" class="st8" width="112.1" height="9.3"/>
		</g>
	</g>
	<g>
		<rect x="147.3" y="184.3" class="st8" width="58.8" height="45.7"/>
		<rect x="149.8" y="186.4" class="st23" width="53.8" height="43.6"/>
		<rect x="149.8" y="226.3" class="st24" width="53.8" height="1.5"/>
		<rect x="149.8" y="223.1" class="st24" width="53.8" height="1.5"/>
		<rect x="149.8" y="219.9" class="st24" width="53.8" height="1.5"/>
		<rect x="149.8" y="216.7" class="st24" width="53.8" height="1.5"/>
		<rect x="149.8" y="213.4" class="st24" width="53.8" height="1.5"/>
		<rect x="149.8" y="210.2" class="st24" width="53.8" height="1.5"/>
		<rect x="149.8" y="207" class="st24" width="53.8" height="1.5"/>
		<rect x="149.8" y="203.8" class="st24" width="53.8" height="1.5"/>
		<rect x="149.8" y="200.6" class="st24" width="53.8" height="1.5"/>
		<rect x="149.8" y="197.4" class="st24" width="53.8" height="1.5"/>
		<rect x="149.8" y="194.1" class="st24" width="53.8" height="1.5"/>
		<rect x="149.8" y="190.9" class="st24" width="53.8" height="1.5"/>
		<rect x="149.8" y="187.7" class="st24" width="53.8" height="1.5"/>
	</g>
	<g>
		<rect x="226.6" y="97.8" class="st18" width="24.2" height="31.4"/>
		<rect x="225.7" y="96.3" class="st8" width="24.2" height="31.4"/>
		<rect x="227.6" y="98.2" class="st25" width="20.4" height="27.7"/>
		<rect x="227.6" y="98.2" class="st26" width="20.4" height="20.4"/>
		<line class="st27" x1="225.7" y1="118.6" x2="249.9" y2="118.6"/>
		<line class="st27" x1="237.8" y1="96.3" x2="237.8" y2="127.7"/>
	</g>
	<g>
		<rect x="165.1" y="145.2" class="st18" width="24.2" height="31.4"/>
		<rect x="164.2" y="143.8" class="st8" width="24.2" height="31.4"/>
		<rect x="166.1" y="145.6" class="st25" width="20.4" height="27.7"/>
		<rect x="166.1" y="145.6" class="st26" width="20.4" height="20.4"/>
		<line class="st27" x1="164.2" y1="166" x2="188.4" y2="166"/>
		<line class="st27" x1="176.3" y1="143.8" x2="176.3" y2="175.1"/>
	</g>
	<g>
		<rect x="65.6" y="185.6" class="st18" width="24.2" height="31.4"/>
		<rect x="64.7" y="184.2" class="st8" width="24.2" height="31.4"/>
		<rect x="66.6" y="186" class="st25" width="20.4" height="27.7"/>
		<rect x="66.6" y="186" class="st26" width="20.4" height="20.4"/>
		<line class="st27" x1="64.7" y1="206.4" x2="88.9" y2="206.4"/>
		<line class="st27" x1="76.8" y1="184.2" x2="76.8" y2="215.5"/>
	</g>
	<g>
		<rect x="107.1" y="185.6" class="st18" width="24.2" height="31.4"/>
		<rect x="106.3" y="184.2" class="st8" width="24.2" height="31.4"/>
		<rect x="108.2" y="186" class="st25" width="20.4" height="27.7"/>
		<rect x="108.2" y="186" class="st26" width="20.4" height="20.4"/>
		<line class="st27" x1="106.3" y1="206.4" x2="130.5" y2="206.4"/>
		<line class="st27" x1="118.4" y1="184.2" x2="118.4" y2="215.5"/>
	</g>
	<g>
		<polygon class="st23" points="296,172.6 245.8,172.6 211.8,155.1 262,155.1 		"/>
		<polygon class="st8" points="245.8,172.6 245.3,177.2 211.3,159.8 211.8,155.1 		"/>
		<polygon class="st8" points="245.8,172.6 245.3,177.2 295.4,177.2 296,172.6 		"/>
	</g>
	<g>
		<rect x="236.9" y="181.6" class="st18" width="20.3" height="44.6"/>
		
			<rect x="225.5" y="195" transform="matrix(-1.836970e-16 1 -1 -1.836970e-16 449.8073 -41.937)" class="st23" width="40.7" height="17.9"/>
		<rect x="240.8" y="187.2" class="st25" width="10.9" height="9.7"/>
		<rect x="240.8" y="187.2" class="st26" width="10.9" height="4.9"/>
	</g>
	<rect x="222.8" y="226.2" class="st21" width="66.2" height="3.3"/>
	<rect x="222.8" y="226.2" class="st18" width="66.2" height="3.3"/>
	<g>
		<g>
			<rect x="287" y="177.2" class="st8" width="3.8" height="52.3"/>
			<rect x="285.1" y="177.2" class="st28" width="3.8" height="52.3"/>
		</g>
		<g>
			<rect x="256.5" y="205.1" class="st8" width="1.5" height="24.4"/>
			<rect x="255.5" y="205.1" class="st28" width="1.5" height="24.4"/>
		</g>
		<g>
			<rect x="263.8" y="205.1" class="st8" width="1.5" height="24.4"/>
			<rect x="262.8" y="205.1" class="st28" width="1.5" height="24.4"/>
		</g>
		<g>
			<rect x="271" y="205.1" class="st8" width="1.5" height="24.4"/>
			<rect x="270" y="205.1" class="st28" width="1.5" height="24.4"/>
		</g>
		<g>
			<rect x="278.3" y="205.1" class="st8" width="1.5" height="24.4"/>
			<rect x="277.3" y="205.1" class="st28" width="1.5" height="24.4"/>
		</g>
		<rect x="247.2" y="203.4" class="st8" width="39.5" height="3.4"/>
		<g>
			<rect x="247.2" y="177.2" class="st8" width="3.8" height="52.3"/>
			<rect x="245.3" y="177.2" class="st28" width="3.8" height="52.3"/>
		</g>
	</g>
</g>
<g>
	<path class="st29" d="M297.6,223.3v6.5h-2.1h0.8h-7.6c0,0,0.3-1.2,0.7-1.3c0.4-0.2,2.8-2.7,3-2.9c0.2-0.3,1.3-2.8,1.3-2.8
		L297.6,223.3z"/>
	<path class="st29" d="M287,223.3v6.5h-2.1l-0.5-1.2l-0.6,1.2h-8.2c0,0,0.3-1.2,0.7-1.3c0.4-0.2,5.4-2.7,5.6-2.9
		c0.2-0.3,1.3-2.8,1.3-2.8L287,223.3z"/>
	<path class="st30" d="M289.8,100.9c0,2.2,0.4,3.3,0.8,4.4c0.4,1.1,4.1,2.4,4.1,2.4s-11.2,12.5-15.6,12.4
		c-4.3-0.1,1.9-11.8,1.9-11.8s1.8-1.1,2.2-2.3c0.4-1.2,0.6-3.9,0.6-3.9l5.1-6.5L289.8,100.9z"/>
	<path class="st30" d="M281.5,88.5c-0.7,0.5-2,1.5-2.1,2.2c-0.1,0.7-0.3,2.9-0.2,4.2c0.1,1.3,0.2,4.5,0.4,6c0.2,1.5,0.4,3.5,0.8,3.7
		c0.4,0.3,3.9,0.4,4.6,0c0.7-0.4,4.4-4,4.2-7.2c0,0,1.4,0.7,2.5-2.2c0.3-0.7-2.2-3.6-2.5-4.5c-0.7-2.1-5-1.5-6.2-1.7
		C281.9,89,281.5,88.5,281.5,88.5z"/>
	<path class="st31" d="M279.4,90.8c0,0,0.4-1,1.3-0.6c0.8,0.4,2.6,0.7,4,0.6c1.4-0.1,2.7-0.7,2.7-0.7s0,2,0.4,2.5
		c0.4,0.5,1.2,1.2,1.3,1.8c0.1,0.6,0,1.3,0,1.3s0.8-1.1,1.5-0.9c0.7,0.2,0.7,1.4,0,1.9c-0.7,0.5-1.4,0.9-1.4,0.9s0,0.9,0.2,1.6
		c0.2,0.7,0.5,1.8,0.5,1.8s1.5-4,2.7-5.6c1.2-1.6,1.8-5-0.6-6.3c0,0,0-3.2-3.3-3.7c-3.3-0.6-10.7,1.3-10,2.9
		C279.3,89.8,279.4,90.8,279.4,90.8z"/>
	<path class="st29" d="M296.6,149.1c0,0,0,12.9,0,25.2c0,3,1,10.7,0.9,16c0,1.9,0,5.3,0,7.3c-0.3,15.2-0.1,28-0.1,28l-6,0.7
		c0,0-2.2-13.9-4.3-27.7c-0.9-5.8-3.3-16.2-3.9-18.6c-2-8-3.9-32.6-3.9-32.6L296.6,149.1z"/>
	<path class="st32" d="M285.6,161.7c0,0,0.3,20.2,0.1,23.9c-0.1,1.2,1.1,5.7,0.9,11.2c0,0.9-0.1,1.8-0.1,2.7
		c-0.1,1.9,0.5,3.9,0.5,5.9c-0.3,10.1,0,20.1,0,20.1s-5,0.1-5,0c0-0.1-7.4-38.1-8-47.2c-0.6-9.2-0.3-21.3-1.1-22.6
		c-0.8-1.3,2.2-8.4,2.2-8.4l7.1,1.8L285.6,161.7z"/>
	<path class="st33" d="M292.8,106.2l7.1,3.8c0,0,1.8,7.2,1.7,10.1c-0.1,2.9-4.1,32-4.1,32s-10.1,1.2-15.2,0
		c-5.1-1.2-8.6-2.4-8.6-2.4s1.8-28.3,2.2-31.3c0.4-2.9,1.4-8.8,1.4-8.8l4-2.1l2.2,1.7L292.8,106.2z"/>
	<polygon class="st34" points="282.1,109.9 282.9,112.7 284.4,112.8 286.6,109.5 283.4,109.3 	"/>
	<polygon class="st34" points="291.9,104.7 283.4,109.3 286.8,112.2 292.8,106.2 	"/>
	<polygon class="st34" points="283.4,109.3 280.6,111.6 281.2,107.6 282.1,106.5 	"/>
	<polygon class="st34" points="294,130.4 290.6,132.1 287.2,129.8 287.2,121.9 294,122.6 	"/>
	<path class="st31" d="M227.2,116.6c-4.9,1-10.9-2.1-14.9-5.4l1.6-5.6l7-9.6c0,0,4.3-0.1,5.1,4.6c0.8,4.7-0.7,8.4,1.1,15.1
		C227.1,116,227.1,116.3,227.2,116.6z"/>
	<g>
		<g>
			<path class="st35" d="M233.5,162.2c0.1,0.1,0.2,0.3,0.4,0.5c1.3,0,3-1.9,3.1-1.9c0.2,0,1.2,0.1,1.6,0.3c0.3,0.2,0.6,0.2,0.7-0.1
				c0.1-0.3-0.5-0.7-0.9-1.1c-0.4-0.3-1.5-0.8-1.9-0.9c-0.5-0.1-0.9-0.8-1.1-1.1c-0.6-0.5-1.6-1.6-1.8-2.3c0,0-0.9,0.2-1.7,0.7
				c-0.8,0.5-0.7,0.7-0.7,0.7C232,158.3,233.1,161.7,233.5,162.2z"/>
			<path class="st33" d="M224.8,118.2c-1.9-1.2-4.9-0.4-5.5,2.2c-0.8,3.6,2.3,16.6,3.5,22.6c0.1,0.6-0.5-2.2-0.1-0.9
				c1.4,4.7,5.1,12.8,8.1,17.1c0,0,1.2-1.8,3.3-2.6c0,0-4.8-13.8-5.5-15.5c0,0-0.9-7.1-1.2-14.2C227.4,121.8,226.2,119,224.8,118.2z
				"/>
		</g>
		<rect x="215.2" y="146.7" class="st33" width="25.4" height="15.2"/>
		<rect x="214.1" y="145.4" class="st8" width="25.4" height="15.2"/>
		<rect x="213.2" y="146.7" class="st33" width="25.4" height="15.2"/>
		<path class="st35" d="M237.8,162.4c0-0.4-0.3-2.6-1.3-1.9c-0.2-0.5-1-1.1-1.4-0.4c-0.7-0.3-0.7,0-1.2,0.2c-0.4,0.2-0.8,0-0.9,0.7
			c-0.1,0.5,0.1,1.2,0.5,1.5c0.5,0.3,1.6,0.3,2.2,0.2C236.3,162.8,237.5,163,237.8,162.4z"/>
	</g>
	<path class="st35" d="M221.4,116.6c-0.7,0-2-1-0.9-3.4l-4.6-1.5c0,0-1,3.1-2.4,4.9c-1.4,1.8,4.4,12.9,7.7,13.5
		c3.3,0.5,4.5-3.6,4.5-3.6l-2.4-8.2L221.4,116.6z"/>
	<path class="st35" d="M222.3,112.1c-1.1,0.9-2.2,4.1-2.1,5.8l-7.1,1.5c0,0,1.6-4.6,2.3-8c0.7-3.5,0-4.9,0-4.9L222.3,112.1z"/>
	<path class="st35" d="M224.7,99.3c0.8,1,1.1,2.5,1.1,3.2c0.1,0.7-0.2,1.4,0.2,2c0.4,0.6,1.9,1.7,2.1,2c0.2,0.4-0.9,1.1-1,1.4
		c-0.1,0.3-0.5,2.4-0.7,3.4c-0.2,1.1-2.6,1.1-4.2,0.7c-1.6-0.4-3.9-1.7-4.8-2.2c-0.9-0.5-2.2-3.4-2.2-3.4l-1.2-5.7
		c0,0,0.9-3.1,4.5-3.1C222.2,97.6,223.8,98.1,224.7,99.3z"/>
	<path class="st31" d="M218.8,107c-0.8,0.2-1.4,4.6-0.1,7.6c-3.7,1.1-5.5,0-8.2-1.4c-0.9-1.4-2.2-11.6,2.1-15.2
		c7.2-6.1,11.3,0.4,11.3,0.4S222.4,105.5,218.8,107z"/>
	<path class="st36" d="M213.9,116.3c0,0,2.3,0.9,4.4,3.2c2,2.3,4.9,4.9,6.5,6.9c0,0-1-3-1.5-4.6c-0.5-1.8-1.2-4.6-1.9-5.2l2.3,0.7
		c0,0,2,5.3,3,7.1c1.1,1.8,2.7,4.3,2.6,6.6c-0.1,2.4-1.6,5.8-1.3,7.8c0.2,2-0.1,12.5-0.1,12.5s-4.7,1.6-9.8,1.3
		c-5.1-0.2-4.6-0.8-6.2,0.2c0,0,2.4-8.6,3-13.6c0.4-3.7-1.6-10-2.5-14c-0.9-4.1-4.6-4-3.2-6.1C210.4,117.2,213.9,116.3,213.9,116.3z
		"/>
	<g>
		<g>
			<path class="st35" d="M219.9,221.8c-0.1-0.9,0.2-4.9,1.6-10.2c0.1-0.4,0.2-0.7,0.3-1.1c-1.8,0-3.6,0.1-5.4,0.2
				c-0.2,5.4,0.1,10.8-1.2,13.4c0,0,1.6,2.1,3.4,3c0.8,0.4,2.9,1.9,3.9,1.7c1.5-0.3,1.9-1.5,1.9-1.5S220.2,224,219.9,221.8z"/>
			<path class="st29" d="M215.2,224c0,0,0.8-0.3,1.5,0.5c1.1,1.1,2.6,2.5,3.9,3.1c2.3,1,3.8-0.3,3.8-0.3s1,0.4,2.5,1.4
				c1.7,1.1-1.7,1.7-6.1,1.1c-1-0.1-3.7-1.6-4-1.6c-0.4,0-0.7,1.1-1,1.1c-0.5,0-0.6,0.1-0.6,0.1l-0.2-2.9L215.2,224z"/>
		</g>
		<path class="st32" d="M227.9,154.2c1,8.6,0.1,28.1,0,29.9c-0.1,1.7,0.1,4.2-0.7,6.2c-0.8,2-5.2,21.7-5.6,26.2c0,0-4.7-0.2-5.8-0.7
			c0,0,0.8-12.7,0.8-15.5c0-2.8,1.9-11.2,2.5-12.4c0.5-1.2-1.2-10.7-1.4-12.8c-0.1-2.1-2.5-19.8-2.5-19.8L227.9,154.2z"/>
		<g>
			<path class="st35" d="M204.8,219.3c0.2-0.9,1.6-4,4.3-7.9c-1.6-0.4-3.1-0.8-4.7-1.2c-1.5,3.9-2.9,7.6-4.5,9.1c0,0,0.7,2.7,2,4.4
				c0.5,0.7,1.9,3.2,2.9,3.4c1.4,0.4,2.2-0.5,2.2-0.5S204.3,221.5,204.8,219.3z"/>
			<path class="st29" d="M199.8,219.3c0,0,0.8,0,1.2,1.2c0.6,1.5,1.4,3.5,2.4,4.7c1.6,2,3.5,1.4,3.5,1.4s0.8,0.9,1.8,2.5
				c1.1,1.9-2.1,0.9-5.8-1.8c-0.8-0.6-2.7-3.2-3-3.4c-0.3-0.2-1,0.7-1.3,0.6c-0.5-0.2-0.6-0.2-0.6-0.2l0.8-2.9L199.8,219.3z"/>
		</g>
		<path class="st32" d="M208.3,154.3c-0.3,1.8-1.8,5.3,0,14.2c1.8,9,2.6,17.1,2.6,17.1s-3.2,7.2-5,12.2c-1.8,5-3.8,16-3.8,16
			l4.4,2.6c0,0,8.5-18.2,10-21c1.5-2.8,3.5-7,3.6-9.9c0.2-5,1.3-15.7,2.1-20c0.5-2.7,1.6-10.9,1.6-10.9L208.3,154.3z"/>
	</g>
	<path class="st37" d="M228.9,154.9c-0.2-2.4-0.5-4.9-1-6c-1-2.4-2.1-5.2-2.1-5.2l-13.9,5.8c-1.5,1.1-2.9,2.7-4,5.1
		C214.8,156,222,156,228.9,154.9z"/>
	<path class="st33" d="M229.2,131.1c0.1-2.4-1.5-4.9-2.6-6.6c-1.1-1.8-3-7.1-3-7.1l-2.3-0.7c0.7,0.5,1.3,3.3,1.9,5.2
		c0.5,1.6,1.5,4.6,1.5,4.6c-0.6-0.7-0.4,22.5,0,25.9c0.9,4.3,4.5,3,4.5,3s-1.1-14.3-1.3-16.4C227.7,136.9,229.2,133.5,229.2,131.1z"
		/>
	<path class="st32" d="M228.4,135.4c-1.4-0.3-2.7-0.7-4-1.1c0,6.8,0.1,16,0.3,18c0.9,4.3,4.5,3,4.5,3s-1.1-14.3-1.3-16.4
		C227.8,138,228.1,136.7,228.4,135.4z"/>
	<path class="st38" d="M226.1,140.5c-0.1-5.9-1.4-14.1-1.4-14.1c-0.6-0.7-0.4,22.5,0,25.9c0.6,2.6,2.1,3.1,3.2,3.2
		C227.2,149,226.2,147,226.1,140.5z"/>
	<path class="st33" d="M209.5,121.3c0.5-1.5,4.4-5.1,4.4-5.1s8.4,5.3,10.9,10.1c0,0,1,16.1,0.5,21c-0.4,4.9-3.5,10.2-8.6,9.7
		c-5.1-0.5-8.8-1.8-8.8-1.8s4.9-11,4.3-13.7C211.3,137,208.7,123.7,209.5,121.3z"/>
	<path class="st32" d="M209.4,124.4c0.4,4.9,2.1,13.6,2.8,17.2c0.5,2.7-4.3,13.7-4.3,13.7s3.7,1.2,8.8,1.8c5.1,0.5,8.2-4.8,8.6-9.7
		c0.2-2.3,0.1-7-0.1-11.5C219.4,132.8,213.6,129.3,209.4,124.4z"/>
	<path class="st39" d="M223.4,97.7c1,1.2,1,3.2,0.1,4.5c-0.9,1.4-2.4,2.2-3.9,2.6"/>
	<g>
		<path class="st35" d="M241,136.3c0.7,0.2,2.2-0.3,3-0.6c0.4-0.2,1.2-0.2,1.5-0.6c0.3-0.3,1.2-1.1,1.7-1.4c0.5-0.2,1.2-0.6,1.4-0.3
			c0.3,0.2,0.1,0.5-0.2,0.7c-0.3,0.2,0.1,1.5,1,1.3c0.9-0.2,1.9-1,2.4-1.1c0.5-0.1,0.6,0.6,0.6,0.6s0.4,0.4,0.4,0.7
			c0,0.3-0.1,0.7-0.2,1c-0.1,0.3-0.4,1-0.4,1.3c0,0.3-1.2,1.2-1.6,1.3c-0.5,0.2-2.7,0-3.3,0.1c-0.6,0.1-4.4-0.4-6-0.2
			c0,0-0.3,0-0.3-1C240.8,137.2,241,136.3,241,136.3z"/>
		<path class="st33" d="M213,117c-2.2-0.5-4.6,1.2-4.9,5.1c-0.3,3.9,9.3,10.9,13.9,15.4c0.4,0.4,0.7,0.7,2.1,0.9
			c5,0.8,9.6,1.5,17.9,2c0,0,0.1-1.9,0.4-4.3c0,0-13-1.7-16.7-4c0,0-2.6-1.7-4.9-6C218.3,121.4,216.1,117.8,213,117z"/>
	</g>
	<g>
		<path class="st30" d="M300.3,154.1c0,0.8-0.1,1.5-0.2,1.8c-0.7,2.4-1.8,4.1-2.4,4.9c-0.7,0.8-1,2.4-1,2.4l1.1,0.1
			c0,0,0.4-0.5,0.7-0.7c0.3-0.3,0.8-0.5,0.8-0.3c0,0.2-0.2,2.3-0.6,3.2c-0.4,0.9-1.6,1.3-1.6,1.3l1.8,0.2l1.6-0.5l0.6-0.2l0.7-1.3
			l0.8-0.4c0,0,0.6-2.3,0.9-3.9s0-2.2,0-4.8c0-0.3,0.1-0.9,0.2-1.7C302.5,154.2,301.4,154.2,300.3,154.1z"/>
		<path class="st33" d="M299.9,157.5l4.5,0.4c0,0,1.6-19.1,1.5-19.9c0-0.8,0.2-19.9-2.1-24.3c-1.8-3.6-4.7-4.4-7.1-3.5
			c-2.4,0.8-1.4,6.4-1.4,6.4l3.7,21.6L299.9,157.5z"/>
		<path class="st34" d="M302,154.4c-0.9,0.2-1.7,0-2.4-0.4l0.2,3.6l4.5,0.4c0,0,0.2-1.7,0.4-4C303.8,154.1,302.9,154.2,302,154.4z"
			/>
	</g>
	<g>
		<path class="st30" d="M253.5,134.4l-2.6,0.3c0,0-1.4-0.4-1.8-0.5c-0.8-0.2-1.3,0.5-1.3,0.5l0.8,0.6l2,2.1c0,0,0.9,0.8,1.5,0.6
			c0.6-0.2,2.4-0.7,2.4-0.7L253.5,134.4z"/>
		<path class="st33" d="M251.4,134.6l1.7,4c0,0,19.4-4.3,20.1-4.9c0.4-0.4,4.8-5.5,8.1-9.5c2.1-2.6,3.9-4.7,3.9-4.7
			s-0.9-6.6-3.3-8.1c-2.4-1.5-4.5-1.5-4.5-1.5l-9.6,17.4L251.4,134.6z"/>
		<path class="st34" d="M255.4,132.8l-4,1.8l1.7,4c0,0,1.5-0.3,3.8-0.9C256.3,136.1,255.8,134.4,255.4,132.8z"/>
	</g>
	<path class="st34" d="M282.9,112.7c0,0-0.4,6.2-0.9,13.6c-0.5,7.8-1,16.7-1.2,17.9c-0.3,2.3,2.1,4.8,2.1,4.8s2-3.1,2.1-4
		c0.1-0.6-0.9-13.9-1.1-23.2c-0.1-5.1,0.5-9.1,0.5-9.1L282.9,112.7z"/>
	<path class="st34" d="M213.9,116.3c0,0,3.3,1.3,5.6,3.1c2.3,1.8,5.3,7,5.3,7s-2-2-2.8-2.6c-0.4-0.3-2.2-1.2-2.2-1.2l0.6-0.9
		l-2.2-0.1c0,0-1-1.5-2.1-2.8c-1.6-1.8-3.3-2.1-3.3-2.1L213.9,116.3z"/>
	<path class="st34" d="M221,116.6c0.1,0.4,0.8,2.1,1.4,3.7c0.6,1.6,2.3,6.1,2.3,6.1s-0.3-2.4-0.3-3.3c-0.1-0.9-0.1-1.8-0.1-1.8h-0.9
		c0,0,0.1-0.7,0.4-1c0,0-0.5-1.5-0.9-2.2c-0.4-0.7-1.1-1.6-1.1-1.6L221,116.6z"/>
	<path class="st30" d="M246.1,139.3c0.6-1.1,0.7-1.6,1.3-1.7c0.6-0.1,0.6,0.3,0.6,0.3s0.7-0.3,0.9-0.1c0.3,0.2,0.3,0.2,0.3,0.2
		s0.3,0,0.7,0c0.4,0,0.5,0.4,0.5,0.4s0.8-0.5,0.8,0s-0.6,1.1-1,1.1S246.1,139.3,246.1,139.3z"/>
	<path class="st30" d="M248.4,134.1c-0.7,0.4-1.6,1.1-1.6,1.5c0,0.4,0.4,0.5,0.8,0.3c0.4-0.3,1.8-0.8,1.8-0.8l0.6-0.3L248.4,134.1z"
		/>
</g>
<rect x="-233.6" y="56.6" class="st23" width="40.8" height="40.8"/>
<rect x="-233.6" y="116.3" class="st40" width="40.8" height="40.8"/>
<rect x="-233.6" y="175.9" class="st32" width="40.8" height="40.8"/>
<rect x="-233.6" y="235.6" class="st41" width="40.8" height="40.8"/>
<rect x="-233.6" y="295.2" class="st17" width="40.8" height="40.8"/>
</svg>
